<svg width="40" height="40" viewBox="0 0 40 40" fill="none" xmlns="http://www.w3.org/2000/svg">
<path d="M20 -1.18072e-05C27.848 -1.18072e-05 31.772 -1.18072e-05 34.6267 1.81867C36.0569 2.7298 37.2702 3.94309 38.1814 5.37328C40 8.22804 40 12.152 40 20C40 27.848 40 31.772 38.1814 34.6267C37.2702 36.0569 36.0569 37.2702 34.6267 38.1813C31.772 40 27.848 40 20 40C12.1521 40 8.22806 40 5.37331 38.1813C3.94312 37.2702 2.72982 36.0569 1.81869 34.6267C1.18072e-05 31.772 1.18072e-05 27.848 1.18072e-05 20C1.18072e-05 12.152 1.18072e-05 8.22804 1.81869 5.37328C2.72982 3.94309 3.94312 2.7298 5.37331 1.81867C8.22806 -1.18072e-05 12.1521 -1.18072e-05 20 -1.18072e-05Z" fill="url(#paint0_linear_485_148737)"/>
<g filter="url(#filter0_df_485_148737)">
<path d="M32.4568 8.11405C32.4568 8.11405 25.6644 14.3405 25.6644 20.0008C25.6644 25.6612 32.4568 31.7933 32.4568 31.7933C32.4568 31.7933 25.6644 25.2839 20.1927 25.2839C14.721 25.2839 7.83418 31.7933 7.83418 31.7933C7.83418 31.7933 14.721 25.6612 14.721 20.0008C14.721 14.3405 7.83418 8.11406 7.83418 8.11406C7.83418 8.11406 14.721 14.3405 20.1927 14.3405C25.6644 14.3405 32.4568 8.11405 32.4568 8.11405Z" fill="url(#paint1_linear_485_148737)" shape-rendering="crispEdges"/>
<path d="M32.457 8.11427C32.4982 8.15918 32.5045 8.16573 32.5054 8.16675L32.5005 8.17158C32.4973 8.17453 32.4923 8.17888 32.486 8.1847C32.4733 8.19653 32.4548 8.21458 32.4301 8.23787C32.3806 8.2846 32.3079 8.35399 32.2154 8.44434C32.0302 8.62507 31.7651 8.88934 31.4475 9.22464C30.8121 9.89535 29.9652 10.8486 29.1183 11.9778C27.4218 14.2398 25.7362 17.1952 25.7361 20.0004C25.7361 22.8056 27.4218 25.7377 29.1183 27.9761C29.9652 29.0936 30.8121 30.0356 31.4475 30.6975C31.765 31.0282 32.0296 31.2893 32.2147 31.4674C32.2775 31.5279 32.3321 31.5778 32.3756 31.6187C32.3953 31.6369 32.4133 31.6533 32.4287 31.6677C32.4531 31.6905 32.4716 31.7085 32.4847 31.7209L32.486 31.7222C32.4924 31.7281 32.4973 31.7325 32.5005 31.7354L32.5068 31.7416L32.4087 31.8465L32.4039 31.8417L32.3314 31.7761C32.3087 31.755 32.2817 31.7288 32.2499 31.6988C32.2093 31.6614 32.1609 31.617 32.1056 31.5669C31.9097 31.3894 31.624 31.1358 31.2638 30.8315C30.5428 30.2223 29.5244 29.4102 28.3359 28.5983C25.9551 26.9718 22.9048 25.3562 20.1925 25.3562C17.4801 25.3563 14.4065 26.9718 12.002 28.5983C10.8019 29.4101 9.7722 30.2223 9.04241 30.8315C8.67754 31.136 8.38737 31.3901 8.18891 31.5676C8.12013 31.6291 8.06174 31.6808 8.01559 31.7229C7.9944 31.7426 7.97604 31.7611 7.95965 31.7761C7.93444 31.7992 7.91545 31.8174 7.90234 31.8293C7.89726 31.8339 7.89239 31.8368 7.88922 31.8396L7.88231 31.8465L7.88162 31.8472L7.78495 31.7409L7.78978 31.7361C7.79315 31.7329 7.79838 31.7284 7.80497 31.7222C7.81828 31.7098 7.83835 31.6909 7.86436 31.667C7.8803 31.6523 7.89837 31.6353 7.91891 31.6166C7.96273 31.5759 8.01816 31.5266 8.08119 31.4667C8.26888 31.2886 8.53678 31.0269 8.85873 30.6961C9.50295 30.0342 10.3624 29.0935 11.221 27.9761C12.9411 25.7376 14.6489 22.8052 14.6489 20.0004C14.6487 17.1956 12.9405 14.2406 11.2204 11.9785C10.3616 10.8492 9.50231 9.89609 8.85804 9.22533C8.53598 8.89005 8.2675 8.62506 8.07981 8.44434C7.98608 8.3541 7.91241 8.28455 7.86229 8.23787C7.83843 8.21565 7.82056 8.19786 7.80774 8.18608L7.80636 8.18608C7.79978 8.18021 7.79455 8.17531 7.79116 8.17227L7.78633 8.16744C7.78708 8.16655 7.79255 8.16009 7.83398 8.11426C7.87992 8.06345 7.88215 8.06046 7.88231 8.0604L7.88715 8.06524C7.8904 8.06816 7.8952 8.0726 7.90165 8.07836C7.91473 8.09003 7.93458 8.10745 7.96034 8.13015C8.01187 8.17553 8.08833 8.24208 8.18753 8.32695C8.38594 8.4967 8.67559 8.73938 9.04034 9.0306C9.7701 9.61323 10.8004 10.3898 12.0007 11.1664C14.4049 12.7221 17.4791 14.2689 20.1925 14.269C22.9058 14.269 25.9567 12.7221 28.3373 11.1664C29.5257 10.3898 30.5443 9.61388 31.2652 9.03129C31.6254 8.7402 31.9111 8.49739 32.1069 8.32764C32.2047 8.24288 32.2805 8.17622 32.3314 8.13084L32.4039 8.06524L32.408 8.06109C32.4081 8.06104 32.4085 8.06128 32.457 8.11427Z" stroke="white" stroke-opacity="0.27" stroke-width="0.143752" shape-rendering="crispEdges"/>
</g>
<defs>
<filter id="filter0_df_485_148737" x="5.64066" y="5.91312" width="29.0107" height="28.082" filterUnits="userSpaceOnUse" color-interpolation-filters="sRGB">
<feFlood flood-opacity="0" result="BackgroundImageFix"/>
<feColorMatrix in="SourceAlpha" type="matrix" values="0 0 0 0 0 0 0 0 0 0 0 0 0 0 0 0 0 0 127 0" result="hardAlpha"/>
<feOffset dx="0.431256"/>
<feGaussianBlur stdDeviation="0.192039"/>
<feComposite in2="hardAlpha" operator="out"/>
<feColorMatrix type="matrix" values="0 0 0 0 1 0 0 0 0 1 0 0 0 0 1 0 0 0 0.74 0"/>
<feBlend mode="normal" in2="BackgroundImageFix" result="effect1_dropShadow_485_148737"/>
<feBlend mode="normal" in="SourceGraphic" in2="effect1_dropShadow_485_148737" result="shape"/>
<feGaussianBlur stdDeviation="1.04735" result="effect2_foregroundBlur_485_148737"/>
</filter>
<linearGradient id="paint0_linear_485_148737" x1="1.50943" y1="-0.566036" x2="37.7721" y2="36.4366" gradientUnits="userSpaceOnUse">
<stop offset="0.275239" stop-color="#000E0A"/>
<stop offset="0.582956" stop-color="#112721"/>
<stop offset="0.970573" stop-color="#007453"/>
</linearGradient>
<linearGradient id="paint1_linear_485_148737" x1="30.6536" y1="8.41504" x2="8.4183" y2="30.6503" gradientUnits="userSpaceOnUse">
<stop offset="0.0432692" stop-color="white"/>
<stop offset="0.125" stop-color="#5468FF"/>
<stop offset="0.379808" stop-color="#F25E5E"/>
<stop offset="0.673077" stop-color="#DFBE4C"/>
<stop offset="1" stop-color="white"/>
</linearGradient>
</defs>
</svg>
