<svg width="792" height="792" viewBox="0 0 792 792" fill="none" xmlns="http://www.w3.org/2000/svg">
<g filter="url(#filter0_f_333_66484)">
<circle cx="396" cy="396" r="200" fill="#6E41AA"/>
</g>
<g filter="url(#filter1_f_333_66484)">
<path d="M395.5 310C441.204 310 478.254 347.051 478.254 392.755C478.254 438.459 441.204 475.51 395.5 475.51C349.796 475.51 312.745 438.459 312.745 392.755C312.745 347.051 349.796 310 395.5 310Z" fill="url(#paint0_linear_333_66484)"/>
</g>
<g filter="url(#filter2_df_333_66484)">
<path d="M330.575 276.67C330.575 276.67 381.8 379.203 399.188 383.862C416.576 388.522 510.108 335.107 510.108 335.107C510.108 335.107 415.737 387.068 411.078 404.456C406.419 421.844 460.12 509.324 460.12 509.324C460.12 509.324 407.872 421.005 390.484 416.346C373.096 411.687 285.753 457.983 285.753 457.983C285.753 457.983 373.935 413.14 378.594 395.752C383.253 378.364 330.575 276.67 330.575 276.67Z" fill="url(#paint1_linear_333_66484)" shape-rendering="crispEdges"/>
<path d="M460.119 509.324L459.459 509.73L460.788 508.929L460.119 509.324ZM285.753 457.983C286.083 458.631 286.104 458.671 286.106 458.673L286.118 458.667L286.117 458.668C286.119 458.667 286.12 458.666 286.122 458.665C286.132 458.66 286.149 458.652 286.17 458.641C286.212 458.619 286.276 458.587 286.359 458.544C286.527 458.458 286.776 458.331 287.1 458.165C287.748 457.832 288.699 457.34 289.91 456.709C290.718 456.289 291.64 455.803 292.667 455.263C294.726 454.204 297.207 452.934 300.022 451.514C308.476 447.25 319.928 441.613 331.921 436.123C343.917 430.631 356.439 425.292 367.038 421.619C372.338 419.782 377.14 418.368 381.145 417.557C385.182 416.741 388.295 416.563 390.283 417.096C392.259 417.625 394.859 419.397 397.942 422.248C400.998 425.075 404.44 428.878 408.101 433.332C415.421 442.238 423.566 453.692 431.179 465.015C438.789 476.335 445.858 487.511 451.025 495.859C452.739 498.628 454.241 501.089 455.486 503.136C456.108 504.179 456.666 505.115 457.157 505.93C457.887 507.144 458.463 508.094 458.855 508.74C459.052 509.063 459.203 509.31 459.304 509.476C459.355 509.559 459.393 509.623 459.419 509.666C459.432 509.687 459.442 509.702 459.449 509.713L459.458 509.728C459.458 509.729 459.459 509.729 460.119 509.324C460.764 508.942 460.787 508.929 460.787 508.928L460.778 508.912C460.772 508.901 460.762 508.885 460.749 508.864C460.724 508.821 460.686 508.757 460.636 508.674C460.536 508.506 460.388 508.257 460.195 507.933C459.807 507.284 459.237 506.332 458.505 505.119C458.009 504.297 457.436 503.356 456.798 502.307C455.574 500.255 454.109 497.787 452.472 494.991C447.513 486.523 440.951 475.055 434.536 463.045C428.119 451.032 421.857 438.493 417.493 427.882C415.31 422.575 413.609 417.77 412.599 413.765C411.581 409.723 411.3 406.624 411.827 404.657C412.353 402.695 414.205 400.105 417.224 397.027C420.215 393.979 424.252 390.548 428.99 386.9C438.463 379.606 450.673 371.495 462.753 363.918C474.829 356.343 486.762 349.309 495.677 344.169C498.661 342.449 501.308 340.943 503.507 339.698C504.598 339.092 505.579 338.549 506.435 338.07C507.732 337.344 508.745 336.771 509.436 336.38C509.781 336.185 510.046 336.036 510.223 335.934C510.312 335.884 510.379 335.845 510.424 335.82L510.492 335.78C510.49 335.776 510.461 335.724 510.109 335.107M285.753 457.983C285.391 457.3 285.39 457.297 285.391 457.297C285.392 457.296 285.393 457.295 285.394 457.295C285.397 457.293 285.402 457.291 285.407 457.289C285.418 457.283 285.433 457.275 285.454 457.263C285.497 457.241 285.56 457.208 285.643 457.164C285.809 457.076 286.056 456.947 286.378 456.778C287.023 456.439 287.971 455.943 289.183 455.314C289.99 454.895 290.915 454.42 291.945 453.89C293.995 452.813 296.46 451.511 299.238 450.02C307.572 445.548 318.731 439.405 330.032 432.721C341.337 426.034 352.769 418.814 361.659 412.189C366.105 408.876 369.897 405.724 372.716 402.873C375.559 399.997 377.318 397.517 377.844 395.552C378.373 393.579 378.105 390.256 377.111 385.813C376.127 381.412 374.463 376.047 372.326 370.072C368.054 358.124 361.916 343.805 355.626 330.013C349.337 316.225 342.901 302.978 338.038 293.177C336.418 289.913 334.97 287.033 333.763 284.641C333.149 283.448 332.597 282.376 332.118 281.438C331.401 280.03 330.842 278.925 330.462 278.172C330.272 277.796 330.127 277.507 330.029 277.313C329.98 277.215 329.943 277.142 329.919 277.092C329.906 277.068 329.897 277.049 329.891 277.036C329.888 277.03 329.885 277.025 329.884 277.022C329.883 277.021 329.882 277.019 329.882 277.019C329.881 277.018 329.881 277.017 330.575 276.67C331.211 276.341 331.26 276.317 331.264 276.315L331.274 276.332C331.28 276.345 331.29 276.363 331.303 276.388C331.328 276.437 331.366 276.51 331.415 276.607C331.515 276.8 331.663 277.087 331.855 277.462C332.24 278.212 332.805 279.314 333.521 280.723C333.997 281.659 334.538 282.734 335.141 283.928C336.366 286.311 337.847 289.176 339.538 292.404C344.609 302.084 351.551 315.037 359.035 328.134C366.52 341.235 374.539 354.463 381.766 364.701C385.38 369.821 388.783 374.175 391.812 377.386C393.326 378.992 394.735 380.3 396.02 381.272C397.311 382.25 398.438 382.858 399.389 383.113C401.357 383.641 404.552 383.364 408.765 382.351C412.938 381.348 417.983 379.657 423.575 377.487C434.755 373.147 448.051 366.92 460.822 360.538C473.589 354.158 485.815 347.631 494.851 342.699C497.847 341.064 500.49 339.601 502.687 338.38C503.796 337.752 504.793 337.187 505.664 336.697C506.96 335.969 507.977 335.402 508.671 335.017C509.017 334.824 509.283 334.676 509.463 334.577C509.552 334.528 509.619 334.49 509.665 334.465C509.688 334.453 509.705 334.444 509.717 334.437L509.734 334.428C509.735 334.429 509.755 334.466 510.098 335.089C510.102 335.095 510.105 335.101 510.109 335.107M330.575 276.67L331.264 276.313L329.881 277.017L330.575 276.67ZM510.109 335.107L510.493 335.78L509.734 334.427L510.109 335.107ZM285.753 457.983L286.105 458.674L285.39 457.297L285.753 457.983Z" stroke="white" stroke-opacity="0.27" stroke-width="1.55141" shape-rendering="crispEdges"/>
</g>
<defs>
<filter id="filter0_f_333_66484" x="0" y="0" width="792" height="792" filterUnits="userSpaceOnUse" color-interpolation-filters="sRGB">
<feFlood flood-opacity="0" result="BackgroundImageFix"/>
<feBlend mode="normal" in="SourceGraphic" in2="BackgroundImageFix" result="shape"/>
<feGaussianBlur stdDeviation="98" result="effect1_foregroundBlur_333_66484"/>
</filter>
<filter id="filter1_f_333_66484" x="273.66" y="270.915" width="243.68" height="243.68" filterUnits="userSpaceOnUse" color-interpolation-filters="sRGB">
<feFlood flood-opacity="0" result="BackgroundImageFix"/>
<feBlend mode="normal" in="SourceGraphic" in2="BackgroundImageFix" result="shape"/>
<feGaussianBlur stdDeviation="19.5427" result="effect1_foregroundBlur_333_66484"/>
</filter>
<filter id="filter2_df_333_66484" x="262.42" y="253.35" width="271.065" height="279.392" filterUnits="userSpaceOnUse" color-interpolation-filters="sRGB">
<feFlood flood-opacity="0" result="BackgroundImageFix"/>
<feColorMatrix in="SourceAlpha" type="matrix" values="0 0 0 0 0 0 0 0 0 0 0 0 0 0 0 0 0 0 127 0" result="hardAlpha"/>
<feOffset dx="4.65424"/>
<feGaussianBlur stdDeviation="2.07254"/>
<feComposite in2="hardAlpha" operator="out"/>
<feColorMatrix type="matrix" values="0 0 0 0 1 0 0 0 0 1 0 0 0 0 1 0 0 0 0.74 0"/>
<feBlend mode="normal" in2="BackgroundImageFix" result="effect1_dropShadow_333_66484"/>
<feBlend mode="normal" in="SourceGraphic" in2="effect1_dropShadow_333_66484" result="shape"/>
<feGaussianBlur stdDeviation="11.3033" result="effect2_foregroundBlur_333_66484"/>
</filter>
<linearGradient id="paint0_linear_333_66484" x1="355.123" y1="349.042" x2="468.206" y2="461.52" gradientUnits="userSpaceOnUse">
<stop offset="0.0253497" stop-color="#112721"/>
<stop offset="0.232407" stop-color="#000E0A"/>
<stop offset="0.970573" stop-color="#007453"/>
</linearGradient>
<linearGradient id="paint1_linear_333_66484" x1="329.185" y1="277.473" x2="462.313" y2="508.058" gradientUnits="userSpaceOnUse">
<stop offset="0.0432692" stop-color="white"/>
<stop offset="0.125" stop-color="#5468FF"/>
<stop offset="0.379808" stop-color="#F25E5E"/>
<stop offset="0.673077" stop-color="#DFBE4C"/>
<stop offset="1" stop-color="white"/>
</linearGradient>
</defs>
</svg>
