<svg width="40" height="40" viewBox="0 0 40 40" fill="none" xmlns="http://www.w3.org/2000/svg">
<rect width="40" height="40" rx="6.15385" fill="#E74D4F"/>
<path d="M18.4692 19.9901H16.7806V19.9028C16.7806 18.6121 16.208 17.9668 15.0629 17.9668H14.3788C13.6509 18.714 12.6853 19.0876 11.482 19.0876C10.1913 19.0876 9.15295 18.6995 8.3669 17.9231C7.59055 17.1371 7.20237 16.0211 7.20237 14.5751C7.20237 14.0899 7.23148 13.6241 7.28971 13.1777H8.9346C8.86667 13.6241 8.83271 14.0947 8.83271 14.5897C8.83271 15.5698 9.06561 16.3219 9.53142 16.8459C10.0069 17.3603 10.6426 17.6174 11.4383 17.6174C12.1856 17.6174 12.7533 17.3991 13.1415 16.9624C13.5393 16.516 13.7383 15.9483 13.7383 15.2593C13.7383 14.842 13.6558 14.5023 13.4908 14.2403C13.3355 13.9686 13.0929 13.8327 12.763 13.8327C12.4913 13.8327 12.2778 13.9346 12.1225 14.1384C11.9672 14.3422 11.8896 14.6042 11.8896 14.9245C11.8896 15.2447 11.9381 15.5504 12.0352 15.8415H10.5649C10.4194 15.5213 10.3466 15.1477 10.3466 14.7207C10.3466 14.0414 10.5601 13.4931 10.9871 13.0758C11.4141 12.6585 11.9866 12.4498 12.7048 12.4498C13.5296 12.4498 14.1895 12.7216 14.6844 13.265C15.1794 13.8085 15.4268 14.4829 15.4268 15.2884C15.4268 15.7251 15.3589 16.1569 15.223 16.5839C15.9412 16.5839 16.4603 16.8168 16.7806 17.2826V11.7657H6.1543V10.3828H19.852V11.7657H18.4692V19.9901Z" fill="#FFEB64"/>
<path d="M30.4139 28.6214C30.1828 29.4838 29.7689 30.0912 29.1721 30.4437C28.5753 30.7961 27.8879 30.8681 27.1099 30.6597C26.988 30.627 26.8955 30.5972 26.8324 30.5703L27.2318 29.0798L27.3865 29.1213C28.127 29.3197 28.6065 29.0112 28.825 28.1956C28.9682 27.6613 28.8834 27.1715 28.5708 26.726C28.27 26.2737 27.7825 25.9371 27.1083 25.7163L25.5824 31.4108L23.9936 30.9851L23.9974 30.971L23.9795 30.9813L20.5059 26.7351L20.9429 25.1041C22.8768 24.1856 24.5279 23.7791 25.8962 23.8845L26.1222 23.0408L20.9761 21.6619L21.334 20.3262L32.6809 23.3666L32.323 24.7023L27.7111 23.4666L27.4888 24.2961C28.5243 24.5937 29.3353 25.1476 29.922 25.9578C30.5111 26.7586 30.6751 27.6465 30.4139 28.6214ZM24.4645 29.2275L25.5006 25.3608C24.5304 25.3822 23.4164 25.6965 22.1586 26.3039L24.4645 29.2275Z" fill="#5FFFE4"/>
<path d="M33.8463 18.8798L32.2575 19.3055L32.2537 19.2915L32.2434 19.3093L25.1536 17.6525L24.7881 16.2886L26.0114 15.9608C26.7588 15.7505 27.2825 15.3992 27.5826 14.9069C27.8802 14.4052 27.936 13.8075 27.7502 13.1139L27.7238 13.0154C27.5441 13.8071 27.0558 14.3096 26.2591 14.5231C25.5654 14.709 24.9737 14.6565 24.4839 14.3658C23.9916 14.0657 23.6575 13.5876 23.4817 12.9314C23.3611 12.4815 23.3297 12.083 23.3874 11.736L24.9622 11.3141C24.9564 11.6673 24.9936 11.9938 25.074 12.2938C25.1619 12.6219 25.3107 12.8583 25.5203 13.0031C25.7367 13.136 25.9902 13.1635 26.2808 13.0856C26.9463 12.9073 27.1573 12.3635 26.9137 11.4543C26.8408 11.1824 26.7762 10.9787 26.7198 10.8431L28.2664 10.4287C28.7869 11.2839 29.1351 12.0395 29.3109 12.6957C29.547 13.5768 29.5026 14.3673 29.1778 15.0672C28.8504 15.7577 28.3016 16.2966 27.5313 16.6838L31.8355 17.7308L29.4657 8.88667L31.0546 8.46094L31.3597 9.59984L32.6955 9.24193L33.0534 10.5777L31.7177 10.9356L33.8463 18.8798Z" fill="#C4D4FF"/>
</svg>
