<svg width="40" height="40" viewBox="0 0 40 40" fill="none" xmlns="http://www.w3.org/2000/svg">
<path d="M19.3327 2.66602H26.226C26.5763 2.66574 26.9232 2.73448 27.2469 2.86832C27.5707 3.00215 27.8648 3.19846 28.1127 3.44602L34.5527 9.88602C34.8002 10.1339 34.9965 10.428 35.1304 10.7518C35.2642 11.0755 35.333 11.4224 35.3327 11.7727V35.9994C35.3327 36.8834 34.9815 37.7313 34.3564 38.3564C33.7313 38.9815 32.8834 39.3327 31.9993 39.3327H7.99935C7.11529 39.3327 6.26745 38.9815 5.64233 38.3564C5.01721 37.7313 4.66602 36.8834 4.66602 35.9994V5.99935C4.66602 5.11529 5.01721 4.26745 5.64233 3.64233C6.26745 3.01721 7.11529 2.66602 7.99935 2.66602H19.3327Z" fill="#006243"/>
<path d="M17.1213 20.3327L14.8773 18.3694C14.6343 18.1567 14.3223 18.0395 13.9993 18.0395C13.6764 18.0395 13.3644 18.1567 13.1213 18.3694L10.8773 20.3327C10.6848 20.5012 10.4478 20.6107 10.1947 20.6482C9.94163 20.6857 9.68309 20.6496 9.44995 20.5441C9.21682 20.4387 9.01895 20.2684 8.87994 20.0536C8.74094 19.8388 8.66668 19.5885 8.66602 19.3327V2.66602C8.66602 2.13558 8.87673 1.62687 9.2518 1.2518C9.62687 0.876729 10.1356 0.666016 10.666 0.666016H17.3327C17.8631 0.666016 18.3718 0.876729 18.7469 1.2518C19.122 1.62687 19.3327 2.13558 19.3327 2.66602V19.3327C19.332 19.5885 19.2578 19.8388 19.1188 20.0536C18.9798 20.2684 18.7819 20.4387 18.5487 20.5441C18.3156 20.6496 18.0571 20.6857 17.804 20.6482C17.5509 20.6107 17.3139 20.5012 17.1213 20.3327Z" fill="#E64C3C"/>
<path d="M35.094 10.6663H29.334C28.8036 10.6663 28.2948 10.4555 27.9198 10.0805C27.5447 9.70539 27.334 9.19668 27.334 8.66625V2.90625C27.6235 3.03928 27.8875 3.22204 28.114 3.44625L34.554 9.88625C34.7782 10.1127 34.961 10.3767 35.094 10.6663Z" fill="#549681"/>
</svg>
