<svg width="40" height="40" viewBox="0 0 40 40" fill="none" xmlns="http://www.w3.org/2000/svg">
<rect width="40" height="40" rx="6.15385" fill="#5F9573"/>
<path d="M19.7586 33.5888C17.0936 33.5888 14.8484 30.2545 13.9 24.887C13.6774 23.611 13.5406 22.3215 13.4907 21.0272C13.4734 20.6043 13.4648 20.1762 13.4648 19.7426C13.4648 17.4968 13.7064 15.2713 14.1637 13.3063C14.3655 12.4225 14.628 11.5537 14.9492 10.7059C16.1384 7.60451 17.8465 5.89648 19.7586 5.89648C21.3523 5.89648 22.855 7.13679 23.9896 9.38937C24.5489 10.4994 25.0074 11.8171 25.3534 13.3063C25.8107 15.2719 26.0523 17.4974 26.0523 19.7426C26.0523 20.6093 26.0172 21.474 25.9478 22.3124C25.8753 23.1857 25.7646 24.0517 25.6171 24.887C25.5391 25.3301 25.4512 25.7608 25.3534 26.1789C25.249 26.627 25.1346 27.0591 25.0105 27.4752C24.874 27.9312 24.7265 28.367 24.568 28.7794C23.3787 31.8808 21.6706 33.5888 19.7586 33.5888ZM19.7586 7.15523C18.4242 7.15523 17.0997 8.61372 16.1243 11.157C15.8242 11.9509 15.5786 12.7642 15.3892 13.5915C14.9541 15.4643 14.7236 17.5915 14.7236 19.7426C14.7236 20.1587 14.7318 20.5699 14.7482 20.9762C14.7964 22.2142 14.927 23.4476 15.1391 24.6682C15.9491 29.2508 17.8059 32.3301 19.7586 32.3301C21.0929 32.3301 22.4174 30.8716 23.3928 28.3283C23.5403 27.9441 23.6776 27.5397 23.8046 27.115C23.9214 26.7235 24.0291 26.3164 24.1279 25.8938C24.2201 25.4973 24.3037 25.088 24.378 24.6682C24.5182 23.8717 24.6239 23.0438 24.6927 22.2085C24.7597 21.4046 24.7935 20.5748 24.7935 19.7426C24.7935 17.5921 24.563 15.4649 24.1279 13.5915C23.804 12.1994 23.3793 10.9763 22.8655 9.95605C21.9558 8.14968 20.8526 7.15523 19.7586 7.15523Z" fill="#FFC80A"/>
<path d="M21.4892 32.9602C21.357 32.9603 21.2281 32.9188 21.1208 32.8415C21.0136 32.7642 20.9334 32.6551 20.8916 32.5297C20.8498 32.4043 20.8486 32.2689 20.8882 32.1427C20.9277 32.0166 21.0059 31.906 21.1118 31.8269C22.177 31.0297 23.1333 29.3561 23.8032 27.1152C23.8269 27.036 23.8659 26.9623 23.9181 26.8982C23.9702 26.8341 24.0345 26.7809 24.1072 26.7416C24.1799 26.7023 24.2596 26.6778 24.3418 26.6693C24.424 26.6609 24.5071 26.6687 24.5863 26.6923C24.6654 26.716 24.7392 26.755 24.8033 26.8071C24.8674 26.8593 24.9206 26.9236 24.9599 26.9963C24.9991 27.069 25.0237 27.1487 25.0321 27.2309C25.0406 27.3131 25.0328 27.3962 25.0091 27.4754C24.2513 30.0101 23.1646 31.8631 21.8653 32.8348C21.7569 32.9164 21.6249 32.9604 21.4892 32.9602Z" fill="#FFA300"/>
<path d="M24.997 25.4077C24.9601 25.4078 24.9233 25.4045 24.887 25.3979C24.8056 25.3836 24.7278 25.3534 24.6581 25.309C24.5884 25.2646 24.5281 25.2069 24.4808 25.1392C24.4334 25.0715 24.3998 24.9951 24.382 24.9144C24.3642 24.8337 24.3624 24.7503 24.3769 24.6689C24.517 23.8724 24.6227 23.0445 24.6916 22.2092C24.6983 22.1268 24.7212 22.0465 24.759 21.9729C24.7968 21.8993 24.8487 21.8339 24.9118 21.7804C24.9748 21.7269 25.0478 21.6863 25.1266 21.661C25.2053 21.6357 25.2883 21.6262 25.3707 21.633C25.4532 21.6398 25.5335 21.6627 25.607 21.7005C25.6806 21.7384 25.746 21.7903 25.7995 21.8534C25.8529 21.9165 25.8935 21.9895 25.9187 22.0683C25.944 22.1471 25.9534 22.23 25.9466 22.3125C25.8741 23.1865 25.7635 24.0525 25.616 24.8877C25.5903 25.0333 25.5142 25.1652 25.401 25.2603C25.2879 25.3553 25.1448 25.4075 24.997 25.4077Z" fill="#FFA300"/>
<path d="M25.3961 19.1132C25.2337 19.113 25.0776 19.05 24.9606 18.9374C24.8435 18.8248 24.7745 18.6713 24.768 18.509C24.6322 15.1611 23.9561 12.1231 22.8645 9.95593C22.8272 9.88216 22.8048 9.80175 22.7986 9.71932C22.7924 9.63688 22.8026 9.55403 22.8284 9.47551C22.8542 9.39698 22.8953 9.32432 22.9492 9.26167C23.0031 9.19902 23.0689 9.14761 23.1427 9.11038C23.2165 9.07315 23.2969 9.05083 23.3794 9.0447C23.4618 9.03857 23.5447 9.04874 23.6232 9.07464C23.7017 9.10054 23.7743 9.14166 23.8369 9.19564C23.8995 9.24962 23.9509 9.31542 23.988 9.38926C25.1595 11.7137 25.8829 14.9344 26.0255 18.4586C26.0289 18.5412 26.0159 18.6236 25.9874 18.7012C25.9589 18.7788 25.9154 18.8499 25.8593 18.9107C25.8032 18.9714 25.7358 19.0205 25.6607 19.0551C25.5857 19.0898 25.5045 19.1093 25.422 19.1125C25.4133 19.1132 25.4047 19.1132 25.3961 19.1132Z" fill="#FFA300"/>
<path d="M14.7764 14.0775C14.7282 14.0777 14.6801 14.0721 14.6332 14.0609C14.5527 14.0422 14.4766 14.0079 14.4094 13.9598C14.3422 13.9118 14.2851 13.8509 14.2414 13.7807C14.1977 13.7106 14.1683 13.6325 14.1549 13.5509C14.1414 13.4694 14.1442 13.386 14.163 13.3055C14.3649 12.4217 14.6273 11.5528 14.9485 10.7051C14.9781 10.6278 15.0226 10.5572 15.0795 10.4972C15.1363 10.4372 15.2045 10.3889 15.28 10.3553C15.3556 10.3216 15.437 10.3032 15.5197 10.301C15.6023 10.2988 15.6846 10.313 15.7618 10.3426C15.839 10.3722 15.9096 10.4168 15.9696 10.4737C16.0295 10.5307 16.0777 10.5988 16.1113 10.6744C16.1449 10.75 16.1633 10.8314 16.1654 10.9141C16.1675 10.9967 16.1533 11.079 16.1236 11.1562C15.8235 11.95 15.5779 12.7634 15.3886 13.5907C15.3564 13.729 15.2784 13.8524 15.1673 13.9407C15.0561 14.0291 14.9184 14.0773 14.7764 14.0775Z" fill="#FFA300"/>
<path d="M14.1182 19.114C14.1096 19.114 14.1009 19.114 14.0923 19.1133C14.0098 19.11 13.9287 19.0905 13.8536 19.0558C13.7786 19.0212 13.7112 18.9721 13.6551 18.9114C13.5991 18.8506 13.5555 18.7795 13.527 18.7019C13.4985 18.6244 13.4855 18.5419 13.4888 18.4594C13.5238 17.5915 13.5957 16.7261 13.7027 15.8872C13.7239 15.7216 13.8101 15.5713 13.9422 15.4693C14.0742 15.3672 14.2414 15.3218 14.407 15.343C14.5725 15.3642 14.7229 15.4502 14.825 15.5822C14.9272 15.7143 14.9727 15.8814 14.9516 16.047C14.8489 16.8497 14.7801 17.6782 14.7463 18.5098C14.7398 18.6721 14.6708 18.8256 14.5537 18.9382C14.4367 19.0508 14.2806 19.1138 14.1182 19.114Z" fill="#FFA300"/>
<path d="M14.3276 24.149C14.1746 24.1487 14.027 24.0928 13.9122 23.9917C13.7974 23.8906 13.7233 23.7512 13.7038 23.5995C13.6497 23.1785 13.6046 22.7495 13.5686 22.3125C13.5617 22.23 13.5712 22.1471 13.5965 22.0683C13.6217 21.9895 13.6622 21.9165 13.7157 21.8534C13.7692 21.7903 13.8346 21.7384 13.9081 21.7005C13.9817 21.6627 14.062 21.6398 14.1444 21.633C14.2269 21.6262 14.3098 21.6357 14.3886 21.661C14.4673 21.6863 14.5403 21.7269 14.6034 21.7804C14.6665 21.8339 14.7184 21.8993 14.7562 21.9729C14.794 22.0465 14.8169 22.1268 14.8236 22.2092C14.8574 22.6265 14.9004 23.0367 14.9527 23.4397C14.9738 23.6053 14.9284 23.7725 14.8263 23.9046C14.7241 24.0367 14.5737 24.1228 14.4081 24.144C14.3814 24.1472 14.3545 24.1488 14.3276 24.149Z" fill="#FFA300"/>
<path d="M15.5369 29.1834C15.4096 29.1833 15.2854 29.1446 15.1805 29.0725C15.0756 29.0005 14.995 28.8983 14.9493 28.7796C14.7907 28.3672 14.6432 27.9314 14.5068 27.4754C14.4831 27.3962 14.4753 27.3131 14.4838 27.2309C14.4922 27.1487 14.5168 27.069 14.556 26.9963C14.5953 26.9236 14.6485 26.8593 14.7126 26.8071C14.7767 26.755 14.8505 26.716 14.9296 26.6923C15.0088 26.6687 15.0919 26.6609 15.1741 26.6693C15.2563 26.6778 15.336 26.7023 15.4087 26.7416C15.4814 26.7809 15.5457 26.8341 15.5979 26.8982C15.65 26.9623 15.689 27.036 15.7127 27.1152C15.8393 27.5393 15.9765 27.9437 16.1245 28.3284C16.1611 28.4238 16.1739 28.5266 16.1619 28.628C16.1499 28.7294 16.1134 28.8263 16.0556 28.9105C15.9978 28.9947 15.9203 29.0635 15.8299 29.111C15.7396 29.1586 15.639 29.1834 15.5369 29.1834Z" fill="#FFA300"/>
<path d="M12.1768 28.5429C10.0121 28.5429 8.36676 27.9179 7.60955 26.6321C7.13199 25.8208 7.04103 24.8435 7.34035 23.7268C8.14242 20.7336 11.7675 17.0409 16.5756 14.3194C23.385 10.4639 30.1182 9.82099 31.9042 12.8548C32.3818 13.6661 32.4728 14.6433 32.1734 15.7601C31.3714 18.7533 27.7463 22.4459 22.9382 25.1674C19.0157 27.3881 15.1177 28.5429 12.1768 28.5429ZM27.3388 12.1842C24.7783 12.1842 21.1379 13.183 17.1952 15.4146C12.7361 17.9389 9.26411 21.4103 8.55606 24.0525C8.34771 24.8306 8.3938 25.484 8.69374 25.9929C9.92912 28.0912 15.6973 27.8214 22.3186 24.0722C26.7777 21.5479 30.2497 18.0766 30.9577 15.4343C31.1661 14.6562 31.12 14.0029 30.82 13.494C30.3204 12.6452 29.0788 12.1842 27.3388 12.1842Z" fill="#66C8FF"/>
<path d="M9.68557 21.3553C9.56724 21.3552 9.45132 21.3218 9.35112 21.2588C9.25093 21.1958 9.17052 21.1059 9.11911 20.9993C9.06771 20.8927 9.0474 20.7738 9.06052 20.6562C9.07363 20.5386 9.11964 20.427 9.19326 20.3344C9.60148 19.8232 10.0371 19.3345 10.4981 18.8704C10.6155 18.7517 10.7752 18.6845 10.9421 18.6836C11.109 18.6827 11.2694 18.7481 11.3881 18.8655C11.5067 18.9828 11.5739 19.1425 11.5748 19.3094C11.5758 19.4763 11.5104 19.6368 11.393 19.7554C10.964 20.1872 10.5588 20.6418 10.1791 21.1174C10.1201 21.1917 10.0451 21.2517 9.95959 21.2929C9.87412 21.3341 9.78045 21.3554 9.68557 21.3553Z" fill="#079CFF"/>
<path d="M18.4989 27.1977C18.3515 27.1978 18.2089 27.1462 18.0957 27.0519C17.9825 26.9576 17.906 26.8265 17.8794 26.6816C17.8529 26.5367 17.878 26.3871 17.9504 26.2588C18.0229 26.1305 18.138 26.0317 18.2757 25.9795C19.0913 25.671 19.9199 25.3096 20.7385 24.9064C20.8127 24.8699 20.8933 24.8484 20.9758 24.8431C21.0583 24.8378 21.141 24.8488 21.2193 24.8754C21.2975 24.9021 21.3698 24.9439 21.4319 24.9984C21.494 25.053 21.5447 25.1193 21.5812 25.1934C21.6177 25.2676 21.6392 25.3483 21.6445 25.4307C21.6498 25.5132 21.6388 25.596 21.6122 25.6742C21.5855 25.7525 21.5437 25.8247 21.4891 25.8868C21.4346 25.9489 21.3683 25.9996 21.2941 26.0361C20.4398 26.4565 19.5744 26.8339 18.722 27.1571C18.6506 27.184 18.5751 27.1977 18.4989 27.1977Z" fill="#079CFF"/>
<path d="M28.5687 20.8008C28.4446 20.8008 28.3232 20.764 28.2198 20.6952C28.1165 20.6263 28.0359 20.5284 27.988 20.4138C27.9402 20.2993 27.9273 20.1731 27.951 20.0512C27.9748 19.9293 28.034 19.8172 28.1213 19.7289C28.5502 19.2972 28.9555 18.8425 29.3352 18.3669C29.3866 18.3022 29.4502 18.2482 29.5225 18.2081C29.5948 18.1679 29.6743 18.1424 29.7564 18.133C29.8385 18.1236 29.9217 18.1304 30.0012 18.1532C30.0807 18.1759 30.1549 18.2141 30.2196 18.2655C30.2843 18.3169 30.3383 18.3805 30.3784 18.4528C30.4186 18.5251 30.4441 18.6046 30.4535 18.6867C30.4629 18.7688 30.4561 18.852 30.4333 18.9315C30.4106 19.0109 30.3724 19.0852 30.321 19.1499C29.9128 19.6611 29.4772 20.1498 29.0162 20.6139C28.9578 20.6733 28.8881 20.7204 28.8113 20.7524C28.7345 20.7845 28.652 20.801 28.5687 20.8008Z" fill="#079CFF"/>
<path d="M18.4992 14.6426C18.357 14.6427 18.219 14.5947 18.1075 14.5064C17.9961 14.4181 17.9179 14.2946 17.8856 14.1561C17.8533 14.0176 17.8689 13.8723 17.9297 13.7438C17.9906 13.6152 18.0932 13.5111 18.2208 13.4484C20.903 12.1282 23.6596 11.2622 25.9828 11.0096C26.1488 10.9915 26.3151 11.04 26.4452 11.1446C26.5754 11.2491 26.6587 11.4011 26.6767 11.567C26.6948 11.733 26.6463 11.8993 26.5417 12.0294C26.4372 12.1596 26.2852 12.2428 26.1193 12.2609C23.938 12.4982 21.3302 13.3212 18.7764 14.5781C18.6902 14.6205 18.5953 14.6425 18.4992 14.6426Z" fill="#079CFF"/>
<path d="M27.337 28.5418C24.396 28.5418 20.4987 27.387 16.5756 25.1663C11.7675 22.4448 8.14242 18.7522 7.34035 15.759C7.04103 14.6422 7.13199 13.665 7.60955 12.8537C9.39502 9.82113 16.1282 10.4646 22.9382 14.3183C27.7463 17.0398 31.3714 20.7325 32.1734 23.7257C32.4728 24.8424 32.3818 25.8197 31.9042 26.631C31.1476 27.9168 29.5011 28.5418 27.337 28.5418ZM12.1749 12.1831C10.435 12.1831 9.19342 12.6441 8.69374 13.4929C8.3938 14.0018 8.34771 14.6551 8.55606 15.4332C9.26411 18.0755 12.7361 21.5468 17.1952 24.0711C23.8158 27.8178 29.584 28.0889 30.82 25.9918C31.12 25.4829 31.1661 24.8295 30.9577 24.0514C30.2497 21.4092 26.7777 17.9378 22.3186 15.4136C18.3765 13.1825 14.7354 12.1831 12.1749 12.1831Z" fill="#66CE83"/>
<path d="M27.337 28.5418C24.396 28.5418 20.4987 27.387 16.5756 25.1663C11.7675 22.4448 8.14242 18.7522 7.34035 15.759C7.04103 14.6422 7.13199 13.665 7.60955 12.8537C9.39502 9.82113 16.1282 10.4646 22.9382 14.3183C27.7463 17.0398 31.3714 20.7325 32.1734 23.7257C32.4728 24.8424 32.3818 25.8197 31.9042 26.631C31.1476 27.9168 29.5011 28.5418 27.337 28.5418ZM12.1749 12.1831C10.435 12.1831 9.19342 12.6441 8.69374 13.4929C8.3938 14.0018 8.34771 14.6551 8.55606 15.4332C9.26411 18.0755 12.7361 21.5468 17.1952 24.0711C23.8158 27.8178 29.584 28.0889 30.82 25.9918C31.12 25.4829 31.1661 24.8295 30.9577 24.0514C30.2497 21.4092 26.7777 17.9378 22.3186 15.4136C18.3765 13.1825 14.7354 12.1831 12.1749 12.1831Z" fill="#7AE297"/>
<path d="M9.68876 19.3898C9.59382 19.39 9.50008 19.3686 9.4146 19.3273C9.32911 19.286 9.25411 19.2258 9.19522 19.1514C8.37347 18.1157 7.79204 17.1133 7.46814 16.1729C7.44112 16.0948 7.42977 16.0121 7.43473 15.9295C7.43968 15.847 7.46085 15.7662 7.49703 15.6919C7.53321 15.6175 7.58368 15.5511 7.64556 15.4962C7.70744 15.4414 7.77952 15.3993 7.85768 15.3723C7.93584 15.3453 8.01855 15.334 8.10108 15.339C8.18361 15.3441 8.26435 15.3653 8.33867 15.4015C8.413 15.4377 8.47946 15.4882 8.53426 15.5501C8.58906 15.6121 8.63112 15.6842 8.65804 15.7623C8.93585 16.5681 9.44844 17.4452 10.1811 18.3696C10.2545 18.4622 10.3003 18.5737 10.3133 18.6912C10.3263 18.8087 10.306 18.9275 10.2546 19.0339C10.2032 19.1404 10.1229 19.2303 10.0228 19.2932C9.92275 19.3561 9.80698 19.3896 9.68876 19.3898Z" fill="#4CC66E"/>
<path d="M19.7577 22.2596C21.1481 22.2596 22.2752 21.1325 22.2752 19.7421C22.2752 18.3517 21.1481 17.2246 19.7577 17.2246C18.3674 17.2246 17.2402 18.3517 17.2402 19.7421C17.2402 21.1325 18.3674 22.2596 19.7577 22.2596Z" fill="#FFC200"/>
<path d="M20.2606 20.2455C21.0948 19.4113 21.2638 18.2278 20.6382 17.6021C20.0125 16.9765 18.8291 17.1455 17.9948 17.9798C17.1606 18.814 16.9916 19.9974 17.6172 20.6231C18.2429 21.2487 19.4263 21.0797 20.2606 20.2455Z" fill="#FFD80C"/>
<path d="M19.3961 18.1215C19.7109 17.8067 19.8467 17.4322 19.6995 17.2849C19.5522 17.1377 19.1777 17.2735 18.8629 17.5883C18.5481 17.903 18.4123 18.2776 18.5596 18.4248C18.7068 18.5721 19.0814 18.4363 19.3961 18.1215Z" fill="#FFFF9D"/>
<path d="M24.1635 13.4481C25.2063 13.4481 26.0516 12.6028 26.0516 11.56C26.0516 10.5172 25.2063 9.67188 24.1635 9.67188C23.1207 9.67188 22.2754 10.5172 22.2754 11.56C22.2754 12.6028 23.1207 13.4481 24.1635 13.4481Z" fill="#C175FF"/>
<path d="M24.2439 11.6414C24.818 11.0673 24.9657 10.2842 24.5738 9.89233C24.1819 9.50042 23.3988 9.64811 22.8247 10.2222C22.2506 10.7963 22.1029 11.5794 22.4948 11.9713C22.8867 12.3632 23.6698 12.2155 24.2439 11.6414Z" fill="#DFB7FF"/>
<path d="M22.9037 32.3309C23.9465 32.3309 24.7918 31.4856 24.7918 30.4428C24.7918 29.4 23.9465 28.5547 22.9037 28.5547C21.861 28.5547 21.0156 29.4 21.0156 30.4428C21.0156 31.4856 21.861 32.3309 22.9037 32.3309Z" fill="#0784FF"/>
<path d="M22.9861 30.5223C23.5602 29.9482 23.7079 29.1651 23.316 28.7732C22.9241 28.3813 22.141 28.529 21.5668 29.1031C20.9927 29.6772 20.845 30.4603 21.237 30.8522C21.6289 31.2441 22.412 31.0964 22.9861 30.5223Z" fill="#5CBEFF"/>
<path d="M9.05999 18.4833C10.1028 18.4833 10.9481 17.6379 10.9481 16.5951C10.9481 15.5524 10.1028 14.707 9.05999 14.707C8.01721 14.707 7.17188 15.5524 7.17188 16.5951C7.17188 17.6379 8.01721 18.4833 9.05999 18.4833Z" fill="#008732"/>
<path d="M9.13843 16.6766C9.71253 16.1025 9.86022 15.3194 9.46831 14.9275C9.0764 14.5356 8.2933 14.6833 7.71919 15.2574C7.14509 15.8315 6.99739 16.6146 7.3893 17.0065C7.78121 17.3984 8.56432 17.2507 9.13843 16.6766Z" fill="#14A142"/>
</svg>
