<svg width="55" height="55" viewBox="0 0 55 55" fill="none" xmlns="http://www.w3.org/2000/svg">
  <path d="M1.59 6.71C1.91 4.68 4.04 2.45 5.94 1.74C8.11 .92 10.53 1.13 12.84 1.14L27.12 1.18C28.44 1.18 31.89 1.07 32.91 1.49C34.07 1.92 35.62 3.67 36.56 4.54C38.31 6.18 39.99 7.92 41.75 9.57C42.05 8.99 42.38 8.48 42.71 8C43.37 8.03 44.06 8 44.66 8.3C45.49 8.57 47.7 9.52 48.5 9.97C48.79 9.93 49.01 10.31 49.34 10.25C49.38 9.98 49.18 10.15 49.09 9.83C49.55 10.17 50.54 11.17 50.89 11.65C51.21 11.2 51.85 10.33 52.05 9.85L52.21 10.04C53.31 10.66 54.18 11.85 53.78 13.14C52.87 16.1 51.16 18.93 49.77 21.7C49.45 22.34 48.84 23.06 48.87 23.78C48.97 26.63 48.82 29.55 48.88 32.41C48.96 35.96 48.89 40.9 48.89 44.26C48.89 45.61 48.95 46.84 48.63 48.17C48.31 49.51 47.65 50.74 46.72 51.75C45.23 53.35 43.22 54.45 41.01 54.48C38.66 54.51 36.31 54.5 33.97 54.5L12.78 54.51C11.25 54.52 9.68 54.56 8.16 54.45C7.58 54.4 5.62 53.82 5.25 53.42C3.95 52.93 2.41 50.95 1.88 49.7C1.5 48.8 1.25 47.52 1.22 46.54C1.15 44.53 1.19 42.5 1.21 40.49L1.28 16.95C1.28 15.15 1.09 7.98 1.59 6.71Z" fill="#CEAA75"/>
  <path d="M48.87 23.78C48.97 26.63 48.81 29.55 48.88 32.41C48.9 32.82 48.9 33.3 48.87 33.71C48.96 35.96 48.89 38.63 48.89 40.9V44.26C48.89 45.61 48.95 46.84 48.63 48.17C48.31 49.51 47.65 50.74 46.71 51.75C45.22 53.35 43.22 54.45 41 54.48C38.66 54.51 36.31 54.5 33.97 54.5L12.78 54.51C11.25 54.52 9.68 54.56 8.16 54.45C7.58 54.4 5.62 53.83 5.25 53.42C7.47 54.01 10.26 53.96 12.36 53.94C16.9 53.89 22.86 54.14 27.77 53.18C31.91 51.84 35.28 47.5 37.31 38C38.42 35.92 39.52 33.84 40.6 31.74C41.1 30.8 41.7 29.54 42.24 28.66C42.66 28.03 42.76 27.6 43.07 27.08C43.18 27.18 43.24 27.27 43.38 27.29C43.61 27.26 43.62 27.29 43.75 27.16L43.98 26.93L43.97 27.12L44.03 27.15C44.13 27.04 44.21 26.95 44.34 26.9C43.96 27.81 43.83 28.55 44.95 28.97C45.33 28.91 45.49 28.89 45.78 28.64C46.77 27.76 47.94 25.05 48.71 23.85C48.76 23.84 48.82 23.8 48.87 23.78Z" fill="#A97C4A"/>
  <path d="M42.71 8C43.37 8.03 44.06 8 44.66 8.3L46.32 8.86C46.51 8.94 46.94 9.14 47.12 9.2C47.25 9.27 47.6 9.45 47.7 9.52C47.88 9.63 48.32 9.9 48.5 9.97C48.79 9.93 49.01 10.31 49.34 10.25C49.38 9.98 49.18 10.15 49.09 9.83C49.56 10.17 50.54 11.17 50.89 11.65C51.21 11.2 51.85 10.33 52.05 9.85L52.21 10.04C53.31 10.66 54.18 11.85 53.78 13.14C52.87 16.1 51.17 18.93 49.77 21.7C49.45 22.34 48.84 23.06 48.87 23.78C48.83 23.8 48.76 23.84 48.71 23.85C47.94 25.05 46.77 27.76 45.78 28.64C45.49 28.89 45.33 28.91 44.95 28.97C43.83 28.55 43.96 27.81 44.34 26.9C44.21 26.95 44.13 27.04 44.03 27.15L43.97 27.12L43.98 26.93L43.75 27.16C43.62 27.29 43.61 27.26 43.38 27.29C43.24 27.27 43.18 27.18 43.07 27.08C42.76 27.6 42.66 28.03 42.24 28.66C41.71 29.54 41.1 30.8 40.61 31.74C39.52 33.84 38.42 35.92 37.31 38C36.99 38.6 35.85 41.04 35.4 41.24C34.64 41.44 30.09 38.86 27.32 37.03C27.48 36.38 28.22 35.03 28.55 34.39L36.46 19.47C36.97 18.53 37.68 17.33 38.11 16.38C38.4 15.93 38.64 15.42 38.89 14.94C39.65 13.42 40.95 11.15 41.75 9.57C42.05 8.99 42.39 8.48 42.71 8Z" fill="#14528B"/>
  <path d="M42.71 8C43.37 8.03 44.06 8 44.66 8.3C43.97 8.33 43.72 9.42 43.41 10.01L41.18 14.25C38.27 19.66 35.42 25.11 32.65 30.59C32.01 31.85 29.29 36.63 29.19 37.76C28.57 37.51 27.95 37.26 27.32 37.03C27.48 36.38 28.22 35.03 28.55 34.39L36.46 19.47C36.97 18.53 37.68 17.33 38.11 16.38C38.4 15.93 38.64 15.42 38.89 14.94C39.65 13.42 40.95 11.15 41.75 9.57C42.05 8.99 42.39 8.48 42.71 8Z" fill="#3395D9"/>
  <path d="M27.6 37.55C27.78 37.85 28.72 38.08 28.94 38.32L32.06 39.89C32.5 40.11 34.59 41.41 34.85 41.37C34.98 41.55 35 41.54 34.87 41.75C34.13 42.95 28.53 49.07 27.58 49.08L27.48 48.98L27.26 48.88C26.98 48.67 26.46 48.4 26.14 48.23L25.9 48.09C25.77 47.98 25.59 47.9 25.44 47.81C25.1 47.68 25.01 47.64 24.83 47.34C24.87 46.42 25.22 44.93 25.43 44.01C25.81 42.42 26.2 40.83 26.72 39.28C26.88 38.8 27.02 38.24 27.23 37.79C27.32 37.6 27.42 37.61 27.6 37.55Z" fill="#2675B6"/>
  <path d="M7.87 15.52C8.1 15.25 8.37 15.14 8.73 15.12C10.5 15.02 12.25 15.06 14.02 15.07L26.12 15.07C26.82 15.08 27.84 15.03 28.5 15.09C29.27 15.07 30.03 15.09 30.8 15.16C31.05 15.32 31.27 15.48 31.44 15.74C31.6 16.02 31.67 16.15 31.75 16.46C31.91 17.31 32.09 18.32 30.96 18.52C30.71 18.57 30.32 18.56 30.1 18.64C29.4 18.99 27.03 18.91 26 19.02C25.75 19.05 25.06 18.89 24.73 18.89L14.47 18.9C13.74 18.9 12.87 18.98 12.17 19C11.68 19.01 9.07 18.86 8.76 18.6C8.28 18.5 7.96 18.24 7.95 17.74C7.77 17.46 7.67 17.29 7.51 17C7.44 16.45 7.48 16.25 7.63 15.83C7.68 15.79 7.83 15.58 7.87 15.52Z" fill="#B17C41"/>
  <path d="M30.71 22.94L30.69 22.81C30.05 22.54 28.14 22.74 27.9 22.64C28.7 22.6 31.41 22.31 31.55 23.48L31.65 23.64C31.88 23.68 31.97 23.64 32.1 23.77C32.2 24.54 32.33 24.79 31.81 25.44C31.51 25.83 30.99 26.39 30.5 26.43C29.45 26.51 28.38 26.55 27.34 26.51C26.95 26.49 26.27 26.65 25.94 26.6C24.9 26.46 23.97 26.44 22.92 26.45L19.56 26.46C19.16 26.47 18.72 26.54 18.33 26.51C16.71 26.41 15.09 26.47 13.48 26.54C12.71 26.58 12.33 26.65 11.51 26.55C10.84 26.47 9.02 26.64 8.48 26.22C8.21 26 8.02 25.7 7.96 25.35L7.79 25.09C7.43 24.54 7.33 23.83 7.73 23.25C7.9 23.01 7.91 23.23 8.14 23.2C8.45 22.92 9.82 22.99 10.29 22.98C11.36 22.97 12.44 22.97 13.51 22.99L22.86 22.96C24.27 22.96 26.11 23.1 27.48 22.98C27.31 22.94 26.99 22.93 26.81 22.91C27.13 22.81 30.19 22.91 30.71 22.94Z" fill="#BD8C4F"/>
  <path d="M8.33 30.32C9.2 30.21 11.4 30.24 12.29 30.25L17.14 30.25C19.04 30.25 20.94 30.17 22.83 30.23C23.3 30.24 24.57 30.2 24.97 30.26C25.39 30.3 25.56 30.45 25.86 30.78C25.99 30.95 26.19 31.21 26.21 31.42C26.32 31.86 26.31 32.27 26.52 32.38C26.58 32.15 26.4 33.22 26.32 33.41L26.28 33.4L26.31 33.16L26.27 33.14C26.06 33.28 25.87 33.46 25.69 33.63L25.68 33.69L25.84 33.69L25.88 33.75C25.66 33.93 25.12 34.17 24.84 34.21C24.48 34.26 23.89 34.14 23.55 34.1C23.44 34.08 20.94 34.04 20.84 34.07L20.84 34.14L20.77 34.19C19.38 34.2 18.03 34.1 16.65 34.08C15.63 34.07 14.36 34.27 13.35 34.18C12.18 34.07 10.14 34.24 9.08 33.94C8.66 33.84 8.15 33.55 7.93 33.16C7.85 33.01 7.9 32.96 7.95 32.82L7.92 32.76C7.62 32.53 7.52 32.1 7.51 31.74C7.35 31.15 7.91 30.63 8.33 30.32Z" fill="#B17C41"/>
  <path d="M45.78 4.13C46.35 3.02 47.33 1.52 48.55 1.09C50.58 .38 52.5 1.58 53.22 3.53C53.6 4.84 53.21 5.53 52.63 6.72C52.57 6.82 52.26 7.38 52.24 7.44L52.21 7.61C52.9 8.77 52.31 8.82 52.05 9.85C51.85 10.33 51.21 11.2 50.88 11.65C50.54 11.17 49.55 10.17 49.09 9.83L49.11 9.78C48.63 9.44 48.22 9.22 47.7 8.96C47.28 8.69 46.56 8.34 46.12 8.1C45.78 7.93 44.79 7.6 44.41 7.54C44.5 7.54 42.89 7.33 42.99 7.36C43.3 6.61 44.02 5.24 44.55 4.66C44.93 4.24 45.25 4.14 45.78 4.13Z" fill="#3C97D9"/>
  <path d="M48.2 5.16C48.39 5.13 48.66 5.26 48.84 5.33L49.63 5.67C50.31 6.03 50.97 6.45 51.6 6.91C51.77 7.04 52.14 7.38 52.25 7.44L52.21 7.61C52.9 8.77 52.31 8.82 52.05 9.85C51.85 10.33 51.21 11.2 50.89 11.65C50.54 11.17 49.56 10.17 49.09 9.83L49.11 9.78C48.63 9.44 48.22 9.22 47.7 8.96C47.28 8.69 46.56 8.34 46.12 8.1C47.02 7.57 47.28 6.28 47.95 5.51C48.07 5.38 48.14 5.33 48.2 5.16Z" fill="#186AAD"/>
  <path d="M48.27 4.86C47.91 4.64 47.26 4.58 47.07 4.23C46.98 3.43 49.59 .51 50.24 2.1C50.36 2.39 48.81 4.52 48.52 4.8C48.48 4.83 48.44 4.87 48.4 4.9L48.27 4.86Z" fill="#63A3D6"/>
</svg>
