<svg width="55" height="55" viewBox="0 0 55 55" fill="none" xmlns="http://www.w3.org/2000/svg">
<g clip-path="url(#clip0_333_65020)">
<path d="M43.505 0H11.495C5.14627 0 0 5.14627 0 11.495V43.505C0 49.8537 5.14627 55 11.495 55H43.505C49.8537 55 55 49.8537 55 43.505V11.495C55 5.14627 49.8537 0 43.505 0ZM9.4902 50.916C9.4902 51.3247 9.15804 51.6569 8.74931 51.6569H5.80951C5.40078 51.6569 5.06863 51.3247 5.06863 50.916V47.9762C5.06863 47.5675 5.40078 47.2353 5.80951 47.2353H8.74931C9.15804 47.2353 9.4902 47.5675 9.4902 47.9762V50.916ZM9.4902 7.02382C9.4902 7.43255 9.15804 7.76471 8.74931 7.76471H5.80951C5.40078 7.76471 5.06863 7.43255 5.06863 7.02382V4.08402C5.06863 3.67529 5.40078 3.34314 5.80951 3.34314H8.74931C9.15804 3.34314 9.4902 3.67529 9.4902 4.08402V7.02382ZM17.5784 50.916C17.5784 51.3247 17.2463 51.6569 16.8375 51.6569H13.8977C13.489 51.6569 13.1569 51.3247 13.1569 50.916V47.9762C13.1569 47.5675 13.489 47.2353 13.8977 47.2353H16.8375C17.2463 47.2353 17.5784 47.5675 17.5784 47.9762V50.916ZM17.5784 7.02382C17.5784 7.43255 17.2463 7.76471 16.8375 7.76471H13.8977C13.489 7.76471 13.1569 7.43255 13.1569 7.02382V4.08402C13.1569 3.67529 13.489 3.34314 13.8977 3.34314H16.8375C17.2463 3.34314 17.5784 3.67529 17.5784 4.08402V7.02382ZM25.6667 50.916C25.6667 51.3247 25.3345 51.6569 24.9258 51.6569H21.986C21.5773 51.6569 21.2451 51.3247 21.2451 50.916V47.9762C21.2451 47.5675 21.5773 47.2353 21.986 47.2353H24.9258C25.3345 47.2353 25.6667 47.5675 25.6667 47.9762V50.916ZM25.6667 7.02382C25.6667 7.43255 25.3345 7.76471 24.9258 7.76471H21.986C21.5773 7.76471 21.2451 7.43255 21.2451 7.02382V4.08402C21.2451 3.67529 21.5773 3.34314 21.986 3.34314H24.9258C25.3345 3.34314 25.6667 3.67529 25.6667 4.08402V7.02382ZM33.7549 50.916C33.7549 51.3247 33.4227 51.6569 33.014 51.6569H30.0742C29.6655 51.6569 29.3333 51.3247 29.3333 50.916V47.9762C29.3333 47.5675 29.6655 47.2353 30.0742 47.2353H33.014C33.4227 47.2353 33.7549 47.5675 33.7549 47.9762V50.916ZM33.7549 7.02382C33.7549 7.43255 33.4227 7.76471 33.014 7.76471H30.0742C29.6655 7.76471 29.3333 7.43255 29.3333 7.02382V4.08402C29.3333 3.67529 29.6655 3.34314 30.0742 3.34314H33.014C33.4227 3.34314 33.7549 3.67529 33.7549 4.08402V7.02382ZM41.8431 50.916C41.8431 51.3247 41.511 51.6569 41.1023 51.6569H38.1625C37.7537 51.6569 37.4216 51.3247 37.4216 50.916V47.9762C37.4216 47.5675 37.7537 47.2353 38.1625 47.2353H41.1023C41.511 47.2353 41.8431 47.5675 41.8431 47.9762V50.916ZM41.8431 7.02382C41.8431 7.43255 41.511 7.76471 41.1023 7.76471H38.1625C37.7537 7.76471 37.4216 7.43255 37.4216 7.02382V4.08402C37.4216 3.67529 37.7537 3.34314 38.1625 3.34314H41.1023C41.511 3.34314 41.8431 3.67529 41.8431 4.08402V7.02382ZM49.9314 50.916C49.9314 51.3247 49.5992 51.6569 49.1905 51.6569H46.2507C45.842 51.6569 45.5098 51.3247 45.5098 50.916V47.9762C45.5098 47.5675 45.842 47.2353 46.2507 47.2353H49.1905C49.5992 47.2353 49.9314 47.5675 49.9314 47.9762V50.916ZM49.9314 7.02382C49.9314 7.43255 49.5992 7.76471 49.1905 7.76471H46.2507C45.842 7.76471 45.5098 7.43255 45.5098 7.02382V4.08402C45.5098 3.67529 45.842 3.34314 46.2507 3.34314H49.1905C49.5992 3.34314 49.9314 3.67529 49.9314 4.08402V7.02382Z" fill="url(#paint0_linear_333_65020)"/>
<path d="M0 37.1665V43.5055C0 49.8542 5.14627 55.0005 11.495 55.0005H43.505C49.8537 55.0005 55 49.8542 55 43.5055V37.1665H0ZM9.4902 50.9165C9.4902 51.3252 9.15804 51.6574 8.74931 51.6574H5.80951C5.40078 51.6574 5.06863 51.3252 5.06863 50.9165V47.9767C5.06863 47.568 5.40078 47.2358 5.80951 47.2358H8.74931C9.15804 47.2358 9.4902 47.568 9.4902 47.9767V50.9165ZM17.5784 50.9165C17.5784 51.3252 17.2463 51.6574 16.8375 51.6574H13.8977C13.489 51.6574 13.1569 51.3252 13.1569 50.9165V47.9767C13.1569 47.568 13.489 47.2358 13.8977 47.2358H16.8375C17.2463 47.2358 17.5784 47.568 17.5784 47.9767V50.9165ZM25.6667 50.9165C25.6667 51.3252 25.3345 51.6574 24.9258 51.6574H21.986C21.5773 51.6574 21.2451 51.3252 21.2451 50.9165V47.9767C21.2451 47.568 21.5773 47.2358 21.986 47.2358H24.9258C25.3345 47.2358 25.6667 47.568 25.6667 47.9767V50.9165ZM33.7549 50.9165C33.7549 51.3252 33.4227 51.6574 33.014 51.6574H30.0742C29.6655 51.6574 29.3333 51.3252 29.3333 50.9165V47.9767C29.3333 47.568 29.6655 47.2358 30.0742 47.2358H33.014C33.4227 47.2358 33.7549 47.568 33.7549 47.9767V50.9165ZM41.8431 50.9165C41.8431 51.3252 41.511 51.6574 41.1023 51.6574H38.1625C37.7537 51.6574 37.4216 51.3252 37.4216 50.9165V47.9767C37.4216 47.568 37.7537 47.2358 38.1625 47.2358H41.1023C41.511 47.2358 41.8431 47.568 41.8431 47.9767V50.9165ZM49.9314 50.9165C49.9314 51.3252 49.5992 51.6574 49.1905 51.6574H46.2507C45.842 51.6574 45.5098 51.3252 45.5098 50.9165V47.9767C45.5098 47.568 45.842 47.2358 46.2507 47.2358H49.1905C49.5992 47.2358 49.9314 47.568 49.9314 47.9767V50.9165Z" fill="url(#paint1_linear_333_65020)"/>
<path d="M20.8865 45.4378C16.3109 45.4377 12.5884 41.7152 12.5884 37.1399V17.8599C12.5884 13.2844 16.3109 9.56201 20.8865 9.56201C22.3215 9.56201 23.751 9.94938 25.0204 10.6823L41.7177 20.3223C44.3125 21.8204 45.8618 24.5037 45.8618 27.4999C45.8618 30.4961 44.3125 33.1794 41.7177 34.6775L25.0204 44.3175C23.7511 45.0503 22.3215 45.4378 20.8866 45.4378C20.8866 45.4378 20.8866 45.4378 20.8865 45.4378Z" fill="url(#paint2_linear_333_65020)"/>
<path d="M55.0011 43.5057V36.4185L42.1669 23.5842C41.6997 23.0162 41.1187 22.5144 40.4222 22.1123L24.3775 12.849C20.1465 10.4062 14.8579 13.4597 14.8579 18.3452V36.8717C14.8579 38.9038 15.7734 40.6184 17.1467 41.7529L22.6296 47.236H24.9269C25.3356 47.236 25.6678 47.5681 25.6678 47.9768V50.2741L30.3943 55.0007H43.5061C49.8548 55.0007 55.0011 49.8544 55.0011 43.5057ZM45.5109 47.9768C45.5109 47.5681 45.8431 47.236 46.2518 47.236H49.1916C49.6003 47.236 49.9325 47.5681 49.9325 47.9768V50.9166C49.9325 51.3254 49.6003 51.6575 49.1916 51.6575H46.2518C45.8431 51.6575 45.5109 51.3254 45.5109 50.9166V47.9768ZM33.756 50.9166C33.756 51.3254 33.4239 51.6575 33.0151 51.6575H30.0753C29.6666 51.6575 29.3344 51.3254 29.3344 50.9166V47.9768C29.3344 47.5681 29.6666 47.236 30.0753 47.236H33.0151C33.4239 47.236 33.756 47.5681 33.756 47.9768V50.9166ZM41.8443 50.9166C41.8443 51.3254 41.5121 51.6575 41.1034 51.6575H38.1636C37.7548 51.6575 37.4227 51.3254 37.4227 50.9166V47.9768C37.4227 47.5681 37.7548 47.236 38.1636 47.236H41.1034C41.5121 47.236 41.8443 47.5681 41.8443 47.9768V50.9166Z" fill="url(#paint3_linear_333_65020)"/>
<path d="M40.3131 22.0034L24.2684 12.7401C20.0374 10.2973 14.7488 13.3508 14.7488 18.2363V36.7628C14.7488 41.6483 20.0375 44.7018 24.2684 42.259L40.3131 32.9957C44.5441 30.5531 44.5441 24.4461 40.3131 22.0034Z" fill="url(#paint4_linear_333_65020)"/>
<path d="M40.3131 22.0034L24.2684 12.7401C20.0374 10.2973 14.7488 13.3508 14.7488 18.2363V36.7628C14.7488 41.6483 20.0375 44.7018 24.2684 42.259L40.3131 32.9957C44.5441 30.5531 44.5441 24.4461 40.3131 22.0034Z" fill="url(#paint5_linear_333_65020)"/>
</g>
<defs>
<linearGradient id="paint0_linear_333_65020" x1="4.20588" y1="4.20588" x2="47.6304" y2="47.6304" gradientUnits="userSpaceOnUse">
<stop stop-color="#DC4955"/>
<stop offset="1" stop-color="#C4237C"/>
</linearGradient>
<linearGradient id="paint1_linear_333_65020" x1="27.5" y1="39.579" x2="27.5" y2="53.3897" gradientUnits="userSpaceOnUse">
<stop stop-color="#8A1958" stop-opacity="0"/>
<stop offset="1" stop-color="#8A1958"/>
</linearGradient>
<linearGradient id="paint2_linear_333_65020" x1="29.2251" y1="43.0998" x2="29.2251" y2="13.3581" gradientUnits="userSpaceOnUse">
<stop stop-color="#DC4955"/>
<stop offset="1" stop-color="#C4237C"/>
</linearGradient>
<linearGradient id="paint3_linear_333_65020" x1="48.1509" y1="50.0819" x2="28.4156" y2="32.0721" gradientUnits="userSpaceOnUse">
<stop stop-color="#8A1958" stop-opacity="0"/>
<stop offset="1" stop-color="#8A1958"/>
</linearGradient>
<linearGradient id="paint4_linear_333_65020" x1="19.1459" y1="22.1576" x2="32.8178" y2="35.8294" gradientUnits="userSpaceOnUse">
<stop stop-color="#EEF4FF"/>
<stop offset="1" stop-color="#CFE7FD"/>
</linearGradient>
<linearGradient id="paint5_linear_333_65020" x1="29.2496" y1="32.3754" x2="32.0535" y2="37.5519" gradientUnits="userSpaceOnUse">
<stop stop-color="#8AAADC" stop-opacity="0"/>
<stop offset="1" stop-color="#8AAADC"/>
</linearGradient>
<clipPath id="clip0_333_65020">
<rect width="55" height="55" fill="white"/>
</clipPath>
</defs>
</svg>
