<svg width="56" height="55" viewBox="0 0 56 55" fill="none" xmlns="http://www.w3.org/2000/svg">
<g clip-path="url(#clip0_333_65033)">
<path d="M5.62172 7.74054C6.47024 7.03453 7.03014 7.18764 8.04618 7.02088C13.7578 6.08345 19.8224 6.97789 24.9173 9.76304C25.1241 9.8761 26.0199 10.3641 26.1413 10.495C26.4462 10.6862 26.7269 10.8813 27.0629 11.0151C27.7718 11.2977 28.3613 10.7376 28.9261 10.3989C29.4578 10.08 29.9844 9.74991 30.5395 9.47452C31.8589 8.80831 33.2317 8.25394 34.6437 7.81725C35.3674 7.59628 36.2938 7.37974 37.0383 7.17721C38.1321 7.08366 39.2076 6.76399 40.3151 6.71063C43.006 6.581 45.6916 6.65996 48.334 7.228C48.766 7.32085 49.3948 7.7493 49.5966 8.14133C49.9021 8.51562 50.0417 9.69533 50.0932 10.1976C50.6285 10.4383 51.0003 10.3283 51.5764 10.4054C52.6232 10.5453 53.5209 11.0935 53.9499 12.0872C54.0714 12.3684 54.0978 12.8996 54.0994 13.2116C54.1089 14.9708 54.0895 16.7394 54.0838 18.4987L54.0846 27.9947L54.078 37.0048C54.0797 38.6902 54.0949 40.3774 54.0739 42.0623C54.0694 42.4455 53.9635 43.2859 53.7082 43.5842C53.3821 44.4749 52.3658 45.4744 51.366 45.4033C50.9126 45.4673 50.059 45.446 49.5768 45.4448L46.6799 45.4355L36.7223 45.4116C35.9809 45.4116 35.1527 45.4197 34.4174 45.4037C33.0525 45.3741 32.7861 45.5185 31.8871 46.5239L31.8189 46.4604C30.0934 48.2743 28.9212 48.2632 26.5822 48.2554C26.3177 48.2546 26.0171 48.1656 25.8087 48.1751L25.7094 48.2138C24.2967 47.8601 23.4241 47.1939 22.5025 46.0864C22.0499 45.5425 21.8254 45.4294 21.1354 45.422C19.9245 45.409 18.7126 45.4206 17.5001 45.4227L7.4502 45.4294C6.63141 45.4302 3.48909 45.5176 2.91796 45.3114C1.62611 45.0314 0.785856 43.4676 0.759226 42.228C0.721713 40.4818 0.76322 38.7414 0.767388 36.9947L0.789208 26.0479L0.786144 17.0715C0.783381 15.63 0.718274 14.1311 0.793153 12.6987C0.816958 12.2432 1.06259 11.8473 1.35961 11.5096C2.12954 10.5124 3.32033 10.3783 4.48997 10.3514C4.6819 10.1627 4.72106 9.94122 4.79292 9.68658L4.96748 8.92966C5.13412 8.38208 5.14401 8.14999 5.62172 7.74054Z" fill="#12457C"/>
<path d="M37.0382 7.17721C38.132 7.08366 39.2075 6.76399 40.315 6.71063C43.0059 6.581 45.6915 6.65996 48.334 7.228C48.7659 7.32085 49.3947 7.7493 49.5965 8.14133C49.902 8.51562 50.0416 9.69533 50.0931 10.1976L50.0486 10.2341L50.0062 10.1519C49.6792 10.662 49.7476 12.6666 49.7501 13.3422L49.7633 16.5528L49.7863 26.1262C49.7884 26.7658 49.8333 28.3337 49.7805 28.913L49.7995 33.2609C49.8007 33.8866 49.7731 34.8713 49.8155 35.4709C49.7645 35.6377 49.4359 36.1678 49.2592 36.2484C49.1744 36.287 49.0212 36.2796 48.9244 36.2769C48.6967 36.272 48.3307 36.3055 48.0609 36.3042C47.3658 36.2959 46.6716 36.2511 45.981 36.1698L45.9559 36.1711C44.1774 36.2492 42.4426 35.9394 40.6638 36.1585C39.9544 36.2459 39.1538 36.1947 38.4356 36.3374C36.6639 36.6607 33.2118 37.4851 31.719 38.3706L31.6801 38.3839C30.879 38.6634 29.5918 39.4919 29.0308 40.135C28.8281 40.3673 28.6937 40.7227 28.4292 40.9498L28.4106 40.966C27.9969 41.3198 26.6187 41.4507 26.343 40.8123C26.2181 40.523 25.7174 40.0476 25.5344 39.7679C26.1726 40.0769 26.4965 40.9375 26.9815 41.1009L27.0602 41.0915L27.1157 41.0166C27.124 40.9104 27.1306 40.8874 27.0766 40.7977C27.03 40.4632 27.062 39.0299 27.062 38.617L27.058 33.8058L27.0308 17.36L27.0192 13.6124C27.0161 12.9635 27.0496 12.1611 26.9452 11.5298C26.8622 11.0283 26.3313 10.7617 26.1615 10.524L26.1412 10.495C26.4461 10.6862 26.7268 10.8813 27.0628 11.0151C27.7717 11.2977 28.3612 10.7376 28.926 10.3989C29.4577 10.08 29.9843 9.74991 30.5395 9.47452C31.8588 8.80831 33.2317 8.25394 34.6436 7.81725C35.3673 7.59628 36.2937 7.37974 37.0382 7.17721Z" fill="#60BAF1"/>
<path d="M37.0385 7.17721C38.1323 7.08366 39.2078 6.76399 40.3153 6.71063C43.0062 6.581 45.6918 6.65996 48.3342 7.228C48.7662 7.32085 49.395 7.7493 49.5968 8.14133C49.9023 8.51562 50.0419 9.69533 50.0934 10.1976L50.0489 10.2341L50.0065 10.1519C49.6795 10.662 49.7479 12.6666 49.7503 13.3422L49.7635 16.5528L49.7866 26.1262C49.7886 26.7658 49.8335 28.3337 49.7808 28.913L49.7998 33.2609C49.801 33.8866 49.7734 34.8713 49.8158 35.4709C49.7648 35.6377 49.4362 36.1678 49.2595 36.2484C49.1747 36.287 49.0215 36.2796 48.9247 36.2769C49.0417 36.0979 49.1063 36.0337 49.257 35.8789C49.3357 35.2832 49.2978 33.9233 49.2957 33.2774L49.2859 28.5318L49.2521 18.6943C49.2451 16.8079 49.2665 14.8802 49.2245 12.9992C49.1953 13.1686 49.208 14.0187 49.208 14.2362L49.2072 16.9044L49.2076 29.6177C49.2084 31.5 49.2636 33.3806 49.2401 35.2618C49.2369 35.547 49.2208 35.7444 49.0454 35.9737L49.0017 35.9475C48.828 35.5008 48.9581 32.181 48.961 31.5291L48.9218 20.171L48.9227 16.1214C48.9231 15.5954 48.9531 14.5325 48.9033 14.0386C48.8695 14.2489 48.8823 15.5636 48.8811 15.8312L48.8683 20.5321C48.8671 20.9213 48.8914 22.3301 48.8485 22.6577C48.8172 22.355 48.8366 21.773 48.837 21.4383L48.8395 18.0907C48.8395 16.9637 48.9115 15.882 48.5035 14.8074C48.4232 14.5951 48.242 14.6114 48.0917 14.4856C48.0979 14.4908 48.0122 14.2279 47.948 14.1515C47.5815 14.1652 47.6412 14.2051 47.4238 13.9322C46.6719 13.7778 45.9133 13.2615 45.2977 12.8073C45.2335 12.8086 45.2458 12.8157 45.1837 12.863L45.1627 12.7574C44.5899 12.7181 45.0441 12.4703 44.568 12.4801C44.568 12.4801 44.3288 12.2784 44.2967 12.2514L44.2221 12.3161C44.0492 12.2351 43.9887 12.2201 43.9277 12.0493C43.4859 12.006 43.1276 11.6405 42.7196 11.449C42.5359 11.3627 42.4157 11.3234 42.2258 11.2527L42.19 11.1153C42.1451 11.0839 41.6806 10.7548 41.6946 10.755C41.3998 10.7499 41.3652 10.6101 41.1238 10.4633C40.8528 10.2984 40.5761 10.0241 40.3122 9.86103C39.6787 9.46969 38.9818 9.18111 38.3612 8.77388C38.0349 8.55982 37.6263 8.57698 37.4367 8.13971C37.4072 8.07926 36.8894 7.98291 36.8289 7.82146C36.8851 7.55706 36.9044 7.41622 37.0385 7.17721Z" fill="#81D6FC"/>
<path d="M49.5969 8.14209C49.9025 8.51637 50.0421 9.69608 50.0935 10.1983L50.0491 10.2349L50.0066 10.1527C49.6797 10.6628 49.748 12.6673 49.7505 13.3429L49.7637 16.5536L49.7868 26.127C49.7888 26.7665 49.8337 28.3345 49.781 28.9138L49.7563 28.8937C49.7052 28.7896 49.6834 25.8883 49.683 25.5689L49.6838 14.1385C49.6743 12.9827 49.6023 11.8553 49.6719 10.693C49.7003 10.2166 49.5508 9.62804 49.6311 9.12945L49.7225 9.40568C49.8201 8.72967 49.6521 8.7122 49.5969 8.14209Z" fill="#58B4ED"/>
<path d="M26.9815 41.1011C27.0572 41.1646 27.1919 41.1615 27.2868 41.1419C27.6101 41.075 27.5386 40.667 27.5405 40.384L27.5124 19.8404L27.498 14.8174C27.4916 13.9514 27.4707 13.0814 27.4716 12.2156C27.4718 12.0454 27.5115 11.7381 27.604 11.5952C27.6675 11.497 27.6842 11.5046 27.773 11.4907C27.8209 11.5115 27.8803 11.5349 27.9171 11.5728C28.3161 11.9831 28.0992 18.8459 28.0917 19.8731L27.9726 31.4613C27.9563 34.026 27.8843 36.5983 28.0164 39.1565C28.0452 39.715 27.9394 40.3539 27.9577 40.938C28.061 40.8337 28.0878 40.792 28.1651 40.6838C30.3319 37.656 34.9637 36.5399 38.4597 35.9732C39.3569 35.8277 45.2744 35.776 45.981 36.17L45.9559 36.1714C44.1774 36.2494 42.4426 35.9396 40.6638 36.1588C39.9544 36.2461 39.1538 36.195 38.4356 36.3377C36.6639 36.661 33.2118 37.4854 31.719 38.3708L31.6801 38.3841C30.879 38.6637 29.5918 39.4922 29.0308 40.1353C28.8281 40.3676 28.6937 40.723 28.4292 40.95L28.4106 40.9662C27.9969 41.32 26.6187 41.451 26.343 40.8126C26.2181 40.5232 25.7174 40.0478 25.5344 39.7681C26.1726 40.0772 26.4965 40.9378 26.9815 41.1011Z" fill="#1174C1"/>
<path d="M38.5153 13.5562C39.4573 13.2502 43.6881 13.0942 44.8971 13.3317C44.9375 13.3396 45.2019 13.5454 45.257 13.5892C45.5445 13.9003 45.7248 14.4063 45.3863 14.7488L45.1821 14.9541C45.0454 15.0895 45.0063 15.1318 44.8407 15.225L44.8473 15.2616C45.0524 15.2002 45.3299 15.0559 45.5663 15.1042C45.6828 15.128 45.5679 15.2103 45.7491 15.1952C45.8261 15.372 45.6709 15.4364 45.5276 15.5508C45.0602 15.9158 44.4438 15.8043 43.8874 15.8166C42.4499 15.8481 40.9961 15.809 39.5587 15.8868C38.7548 15.9303 37.7766 16.1693 36.9616 16.2555C36.2698 16.3287 35.5672 16.4783 34.8755 16.5649C34.6544 16.5987 34.1797 16.8579 33.9981 16.8707C33.5681 16.9012 33.4349 17.0548 33.0448 17.1936L33.0223 17.1419L32.4445 17.422C32.363 17.612 32.1094 17.5435 32.1034 17.7981C32.2823 17.9753 32.4856 17.6685 32.732 17.6929L32.7314 17.7427C32.4562 18.0186 31.0516 17.9747 30.8956 17.4718C30.8364 17.2806 30.6293 17.0082 30.8822 16.8615L30.9652 16.8958C31.0104 16.8617 31.0269 16.8226 31.0586 16.7725C30.8404 16.1805 31.4235 15.9237 31.8495 15.6462C32.5015 15.2012 34.7748 14.3832 35.5603 14.1797C35.9185 14.0945 36.2984 13.9514 36.671 13.8582C37.3147 13.6971 37.8624 13.6313 38.5153 13.5562Z" fill="#2F81CA"/>
<path d="M38.5153 13.5562C39.4572 13.2502 43.6881 13.0942 44.8971 13.3317C44.9375 13.3396 45.2018 13.5454 45.257 13.5892C45.5444 13.9003 45.7248 14.4063 45.3863 14.7488L45.1821 14.9541L45.0795 14.9007C45.0758 14.5704 44.6966 14.2558 44.4194 14.2487C43.1026 14.2149 41.2911 14.118 40.0078 14.3455C37.296 14.4737 34.2849 15.4232 31.7991 16.4883C31.6117 16.5685 31.3126 16.8564 31.1362 16.8828C31.0958 16.8374 31.0896 16.8394 31.0783 16.7811L31.0586 16.7725C30.8403 16.1805 31.4235 15.9237 31.8495 15.6462C32.5014 15.2012 34.7748 14.3832 35.5603 14.1797C35.9185 14.0945 36.2984 13.9514 36.671 13.8582C37.3147 13.6971 37.8624 13.6313 38.5153 13.5562Z" fill="#022F6C"/>
<path d="M31.8492 15.6462C32.5012 15.2012 34.7746 14.3832 35.5601 14.1797C35.9096 14.1846 36.4034 14.1776 36.7375 14.2279C35.1604 14.6215 33.0106 15.3601 31.6157 16.1861C31.7598 15.9543 31.8914 15.9163 31.8492 15.6462Z" fill="#3899DD"/>
<path d="M38.5159 13.5562C39.4578 13.2502 43.6887 13.0942 44.8977 13.3317C44.9381 13.3396 45.2024 13.5454 45.2576 13.5892L43.7159 13.5535C43.2946 13.41 39.3218 13.5837 38.5159 13.5562Z" fill="#58B4ED"/>
<path d="M38.515 13.5553C39.3209 13.5828 43.2938 13.4091 43.715 13.5526C43.435 13.5518 41.6549 13.5138 41.5186 13.6007C41.0209 13.6224 40.5224 13.6432 40.0262 13.6857C38.9249 13.7802 37.823 14.0203 36.7374 14.227C36.4033 14.1768 35.9095 14.1838 35.5601 14.1788C35.9182 14.0936 36.2981 13.9505 36.6707 13.8573C37.3144 13.6962 37.8621 13.6304 38.515 13.5553Z" fill="#3D9CDF"/>
<path d="M41.5186 13.6005C41.6549 13.5136 43.435 13.5516 43.715 13.5524L45.2567 13.5881C45.5442 13.8992 45.7245 14.4052 45.386 14.7477C45.3432 14.2073 45.0974 14.0182 44.7169 13.6674C44.0551 13.5264 42.2915 13.6326 41.5186 13.6005Z" fill="#3186CD"/>
<path d="M31.8495 15.645C31.8916 15.9151 31.76 15.9531 31.6159 16.1849C31.3589 16.3917 31.2319 16.4794 31.0783 16.7799L31.0586 16.7713C30.8403 16.1792 31.4235 15.9224 31.8495 15.645Z" fill="#48A6E5"/>
<path d="M44.8472 15.2614C45.0523 15.2 45.3299 15.0556 45.5662 15.104C45.6828 15.1278 45.5679 15.2101 45.7491 15.1949C45.8261 15.3718 45.6708 15.4362 45.5275 15.5506C45.0601 15.9155 44.4437 15.8041 43.8874 15.8163C42.4498 15.8479 40.996 15.8087 39.5586 15.8865C38.7547 15.93 37.7765 16.169 36.9615 16.2552C36.2697 16.3284 35.5672 16.4781 34.8755 16.5646C34.6544 16.5985 34.1796 16.8576 33.998 16.8705C33.568 16.901 33.4348 17.0545 33.0447 17.1934L33.0222 17.1416C34.8571 16.1527 38.6844 15.4044 40.8403 15.2811C42.0245 15.2133 43.5938 15.3091 44.8472 15.2614Z" fill="#89DEFF"/>
<path d="M40.0069 14.3447C41.2902 14.1171 43.1017 14.214 44.4186 14.2478C44.6957 14.2549 45.0749 14.5696 45.0786 14.8998L45.1812 14.9533C45.0445 15.0886 45.0053 15.1309 44.8398 15.2242L44.7793 15.15C44.8069 15.0673 44.8221 15.0398 44.8192 14.9543C44.3877 14.8884 44.5001 14.6451 44.3078 14.5807C44.169 14.5343 42.4226 14.6006 42.428 14.5976C42.484 14.6817 42.5248 14.6638 42.6524 14.6914C42.6096 14.7145 41.7378 14.5446 41.6147 14.5873C40.9914 14.8041 40.5336 14.7853 39.8846 14.792C39.5193 14.7957 39.1655 14.8317 38.7897 14.8176L38.7759 14.7685C38.9692 14.5795 39.6788 14.4659 40.0069 14.3447Z" fill="#1174C1"/>
<path d="M32.4445 17.4223C32.363 17.6123 32.1094 17.5439 32.1034 17.7984C32.2823 17.9756 32.4856 17.6688 32.732 17.6933L32.7314 17.743C32.4562 18.0189 31.0516 17.9751 30.8956 17.4721C30.8364 17.2809 30.6293 17.0085 30.8822 16.8618L30.9652 16.8962C30.9956 17.5649 31.5995 17.7563 32.1573 17.5473C32.2289 17.5205 32.3843 17.4371 32.4445 17.4223Z" fill="#9FECFD"/>
<path d="M40.4704 24.7681C41.0869 24.6565 44.5528 24.4955 44.9378 24.785L45.0654 24.8717C45.1321 24.9133 45.2351 24.9718 45.2927 25.0198C45.5777 25.3779 45.6563 25.802 45.3471 26.1708L45.3261 26.2123C45.2227 26.4009 45.0588 26.5079 44.8735 26.6093L44.7302 26.6894C44.8908 26.6791 44.9118 26.6785 45.0457 26.7692L45.0782 26.8742C45.0226 26.9628 44.8529 27.0592 44.7554 27.0604C42.6606 27.0861 40.6635 27.0329 38.5895 27.4495C37.4529 27.6778 36.3614 27.9684 35.2441 28.2972C34.804 28.4171 33.7571 28.9115 33.3221 28.9318L33.2984 28.8835C33.8455 28.531 37.4435 27.5724 37.484 27.5357C36.0658 27.4773 33.6494 28.4506 32.3665 29.1139C32.3373 29.1168 31.8743 29.3285 31.8613 29.3419C32.1604 29.4437 32.3455 29.1974 32.5648 29.2459C32.1971 29.6299 31.3789 29.379 30.947 29.2354C30.8564 29.0419 30.6699 28.467 30.7797 28.2793C30.8773 28.3229 30.902 28.3819 30.9618 28.4722L31.0154 28.422L31.0829 28.3154L31.1013 28.2624C31.0409 28.1291 30.9843 28.0836 31.0414 27.9392C31.1988 27.5409 31.8657 27.1713 32.2414 27.0118C32.5605 26.7595 33.9798 26.1881 34.4023 26.0463C34.5069 26.0135 34.6166 25.9682 34.7206 25.9299C35.5089 25.6397 36.346 25.4565 37.1661 25.2753C37.5473 25.1227 39.9837 24.8023 40.4704 24.7681Z" fill="#022F6C"/>
<path d="M31.0154 28.4204C31.0943 28.4979 31.1673 28.5053 31.2614 28.4563C32.6297 27.7447 34.0825 27.1964 35.5573 26.7494C35.8322 26.7011 36.2222 26.6363 36.5003 26.6336C37.1628 26.6272 37.6884 26.3753 38.3025 26.2302C38.5858 26.1633 39.2411 26.1532 39.554 26.1288C40.7131 26.0317 41.8753 25.9774 43.0386 25.9659C43.1939 25.9641 43.7959 25.9398 43.8886 25.9666C44.036 26.0095 44.7352 26.3289 44.876 26.4105L44.8838 26.4791L44.8455 26.524L44.8735 26.6077L44.7302 26.6878C44.8908 26.6775 44.9118 26.677 45.0457 26.7676L45.0782 26.8727C45.0226 26.9612 44.8529 27.0577 44.7554 27.0589C42.6606 27.0845 40.6635 27.0314 38.5895 27.448C37.4529 27.6762 36.3614 27.9668 35.2441 28.2957C34.804 28.4155 33.7571 28.91 33.3221 28.9303L33.2984 28.882C33.8455 28.5294 37.4435 27.5709 37.484 27.5341C36.0658 27.4758 33.6494 28.4491 32.3665 29.1124C32.3373 29.1152 31.8743 29.327 31.8613 29.3404C32.1604 29.4422 32.3455 29.1959 32.5648 29.2444C32.1971 29.6284 31.3789 29.3775 30.947 29.2338C30.8564 29.0404 30.6699 28.4654 30.7797 28.2777C30.8773 28.3214 30.902 28.3804 30.9618 28.4707L31.0154 28.4204Z" fill="#2979C2"/>
<path d="M44.7297 26.6887C44.8903 26.6784 44.9113 26.6779 45.0451 26.7685L45.0776 26.8736C45.022 26.9621 44.8524 27.0586 44.7548 27.0597C42.66 27.0854 40.663 27.0323 38.5889 27.4488C37.4524 27.6771 36.3608 27.9677 35.2435 28.2966C34.8034 28.4164 33.7565 28.9108 33.3216 28.9312L33.2978 28.8828C33.8449 28.5303 37.4429 27.5718 37.4834 27.535C36.0652 27.4767 33.6488 28.45 32.366 29.1133L32.3669 29.0172C32.7986 28.7565 33.7414 28.3937 34.2257 28.2213C36.6581 27.3398 39.2125 26.8406 41.7978 26.7414C42.3973 26.7214 44.3216 26.8061 44.7297 26.6887Z" fill="#8AE2FF"/>
<path d="M30.947 29.2349C30.8564 29.0414 30.6699 28.4665 30.7797 28.2788C30.8773 28.3225 30.902 28.3815 30.9618 28.4718C31.0035 29.17 31.8451 29.4983 32.3675 29.0174L32.3665 29.1135C32.3373 29.1163 31.8743 29.328 31.8613 29.3415C32.1604 29.4433 32.3455 29.1969 32.5648 29.2455C32.1971 29.6295 31.3789 29.3785 30.947 29.2349Z" fill="#99EBFD"/>
<path d="M31.0821 28.3152C31.0974 28.3669 31.1016 28.3634 31.1442 28.3982C31.2792 28.3146 31.415 28.2324 31.5517 28.1517C34.3455 26.4995 39.0051 25.6718 42.2332 25.5558C42.9415 25.5277 43.6226 25.526 44.3272 25.6039C44.7925 25.6553 45.0601 26.1665 45.3253 26.212C45.222 26.4007 45.0581 26.5076 44.8728 26.609L44.8448 26.5252L44.8831 26.4804L44.8753 26.4118C44.7344 26.3302 44.0352 26.0108 43.8878 25.9679C43.7951 25.9411 43.1931 25.9654 43.0379 25.9672C41.8746 25.9787 40.7124 26.033 39.5533 26.1301C39.2404 26.1545 38.5851 26.1646 38.3017 26.2315C37.6877 26.3765 37.162 26.6285 36.4995 26.6349C36.2214 26.6376 35.8314 26.7024 35.5565 26.7507C34.0818 27.1977 32.6289 27.746 31.2607 28.4576C31.1665 28.5066 31.0935 28.4992 31.0146 28.4217L31.0821 28.3152Z" fill="#0E66AE"/>
<path d="M40.4699 24.7681C41.0864 24.6565 44.5523 24.4955 44.9373 24.785L45.065 24.8717C45.1317 24.9133 45.2346 24.9718 45.2923 25.0198C44.9155 24.9111 42.3142 24.9179 41.9774 25.0108C41.1753 25.0499 40.4469 25.0945 39.65 25.202C38.9492 25.2966 38.1863 25.4823 37.4934 25.5486C36.5591 25.4801 35.5235 26.2084 34.4019 26.0463C34.5064 26.0135 34.6161 25.9682 34.7201 25.9299C35.5084 25.6397 36.3456 25.4565 37.1657 25.2753C37.5468 25.1227 39.9832 24.8023 40.4699 24.7681Z" fill="#48A6E5"/>
<path d="M40.4705 24.7681C41.087 24.6565 44.5529 24.4955 44.9379 24.785L45.0655 24.8717L40.4778 24.9877C40.0291 25.0024 39.5311 24.9996 39.0829 25.0128C38.6679 25.025 37.4773 25.3127 37.1663 25.2753C37.5474 25.1227 39.9838 24.8023 40.4705 24.7681Z" fill="#3D9CDF"/>
<path d="M40.4695 24.7681C41.0859 24.6565 44.5518 24.4955 44.9368 24.785C44.5881 24.8732 43.1934 24.8054 42.7836 24.8004C42.0642 24.7918 41.1793 24.8184 40.4695 24.7681Z" fill="#48A6E5"/>
<path d="M32.2417 27.0104C32.609 27.0129 32.9862 26.4933 33.9809 26.5733C33.0014 27.027 31.7761 27.4542 31.1017 28.261C31.0412 28.1277 30.9846 28.0823 31.0417 27.9378C31.1992 27.5395 31.8661 27.1699 32.2417 27.0104Z" fill="#3186CD"/>
<path d="M34.4027 26.0453C35.5243 26.2073 36.5599 25.479 37.4942 25.5475C36.7484 25.7411 36.0058 25.9489 35.2653 26.1617C35.0172 26.2331 34.199 26.5467 33.9809 26.5737C32.9862 26.4936 32.6089 27.0132 32.2417 27.0108C32.5609 26.7585 33.9802 26.187 34.4027 26.0453Z" fill="#3D9CDF"/>
<path d="M41.9785 25.0096C42.3154 24.9167 44.9166 24.9099 45.2934 25.0186C45.5783 25.3768 45.657 25.8008 45.3477 26.1696C45.4461 24.6152 42.9717 25.0226 41.9785 25.0096Z" fill="#3186CD"/>
<path d="M35.1167 20.0792C36.0199 19.7177 36.5685 19.6539 37.4694 19.4701C39.3224 19.0923 41.118 19.0191 43.0047 19.0319C43.4095 19.0346 44.441 19.0058 44.8129 19.0829C45.1114 19.1481 45.2959 19.3036 45.4627 19.559C45.6435 19.9058 45.5718 20.1583 45.4071 20.4891C45.2897 20.6063 45.1942 20.701 45.0678 20.8074C44.9615 20.929 44.9175 20.9489 44.7804 21.0309C44.8944 21.0292 44.9315 21.0255 45.0299 20.967C45.0892 20.9754 45.1563 20.9832 45.2148 20.9948C45.1884 21.1376 45.0826 21.1923 44.9632 21.2721C44.7169 21.4364 42.3302 21.2838 41.7665 21.3254C40.5467 21.4154 39.3378 21.6222 38.1256 21.7763C37.1963 21.8943 36.2496 21.9191 35.3425 22.1753C34.7351 22.3468 34.1135 22.5462 33.5332 22.7958C33.2846 22.9027 32.8431 23.1797 32.621 23.2337C32.5029 23.2994 32.34 23.3745 32.2624 23.4774C32.4856 23.5816 32.8378 23.2886 33.092 23.3028C32.8489 23.591 31.5683 23.7146 31.2223 23.5248C30.884 23.3394 30.6315 22.9596 30.8031 22.5896L30.878 22.5754L30.9689 22.6385L31.0542 22.5367C30.8026 21.9054 31.8036 21.4106 32.2778 21.2001C32.6863 20.8778 34.5691 20.2089 35.1167 20.0792Z" fill="#2C7DC6"/>
<path d="M35.1171 20.0792C36.0202 19.7177 36.5689 19.6539 37.4698 19.4701C39.3228 19.0923 41.1184 19.0191 43.0051 19.0319C43.4099 19.0346 44.4414 19.0058 44.8133 19.0829C45.1118 19.1481 45.2963 19.3036 45.4631 19.559C45.6438 19.9058 45.5722 20.1583 45.4075 20.4891C45.2901 20.6063 45.1946 20.701 45.0682 20.8074C44.9804 20.532 45.0393 20.4101 44.7284 20.2679C44.0873 19.9744 43.2423 20.0015 42.5522 19.9883C38.749 19.9159 34.9961 20.6593 31.5679 22.3227C31.3952 22.4065 31.2115 22.6465 31.118 22.6468L31.0739 22.544L31.0546 22.5367C30.803 21.9054 31.804 21.4106 32.2782 21.2001C32.6867 20.8778 34.5695 20.2089 35.1171 20.0792Z" fill="#022F6C"/>
<path d="M35.1169 20.0792C36.0201 19.7177 36.5688 19.6539 37.4697 19.4701C39.3227 19.0923 41.1182 19.0191 43.005 19.0319C43.4098 19.0346 44.4413 19.0058 44.8131 19.0829C43.9912 19.1127 40.3107 19.147 39.7685 19.4911C39.0608 19.5535 38.5291 19.6216 37.8306 19.769C37.3432 19.8718 36.694 20.0461 36.2199 20.1143C35.9672 20.0365 35.4844 20.1352 35.1169 20.0792Z" fill="#3D9CDF"/>
<path d="M35.1171 20.0796C35.4845 20.1356 35.9674 20.0369 36.2201 20.1146C35.8997 20.2055 34.7891 20.571 34.56 20.6007C33.7477 20.896 31.437 21.7378 31.0739 22.5444L31.0546 22.537C30.803 21.9058 31.804 21.411 32.2782 21.2004C32.6867 20.8782 34.5695 20.2092 35.1171 20.0796Z" fill="#3D9CDF"/>
<path d="M35.1157 20.0796C35.4832 20.1356 35.966 20.0369 36.2187 20.1146C35.8983 20.2055 34.7878 20.571 34.5586 20.6007C34.4452 20.6077 34.3335 20.6152 34.2199 20.619C33.5357 20.6418 32.9211 21.0549 32.2769 21.2004C32.6854 20.8782 34.5682 20.2092 35.1157 20.0796Z" fill="#48A6E5"/>
<path d="M44.8124 19.0825C45.111 19.1477 45.2954 19.3032 45.4622 19.5585C45.2349 19.4844 44.9883 19.3773 44.763 19.446C43.6269 19.1781 40.9758 19.3937 39.7678 19.4907C40.31 19.1466 43.9905 19.1123 44.8124 19.0825Z" fill="#48A6E5"/>
<path d="M44.7629 19.4454C44.9882 19.3767 45.2348 19.4837 45.4621 19.5579C45.6429 19.9048 45.5713 20.1573 45.4066 20.4881C45.346 20.0375 45.1162 19.7152 44.7629 19.4454Z" fill="#3186CD"/>
<path d="M44.7798 21.0312C44.8939 21.0295 44.931 21.0258 45.0294 20.9673C45.0887 20.9757 45.1558 20.9835 45.2143 20.9951C45.1879 21.1379 45.0821 21.1926 44.9627 21.2725C44.7164 21.4367 42.3297 21.2842 41.766 21.3257C40.5462 21.4157 39.3373 21.6225 38.1251 21.7766C37.1958 21.8947 36.249 21.9195 35.342 22.1756C34.7346 22.3471 34.113 22.5466 33.5327 22.7961C33.2841 22.903 32.8426 23.18 32.6205 23.234L32.6025 23.1889C33.7613 22.3236 37.2865 21.5337 38.7604 21.2471C39.6909 21.0662 41.1508 21.1232 42.1391 21.0164C42.8354 20.9411 44.1881 21.2251 44.7798 21.0312Z" fill="#8BE1FF"/>
<path d="M32.621 23.2335C32.5029 23.2992 32.34 23.3743 32.2624 23.4772C32.4856 23.5814 32.8378 23.2884 33.092 23.3026C32.8489 23.5908 31.5683 23.7144 31.2223 23.5246C30.884 23.3392 30.6315 22.9594 30.8031 22.5894L30.878 22.5752L30.9689 22.6383C30.9548 23.5656 32.019 23.5173 32.603 23.1884L32.621 23.2335Z" fill="#A2EFFF"/>
<path d="M45.8691 13.6157C45.9589 13.6255 46.0108 13.6336 46.0989 13.6541C46.2064 13.7339 46.2097 13.8008 46.241 13.9289C46.0586 13.9136 46.0573 13.8088 45.8848 13.6313L45.8691 13.6157Z" fill="#58B4ED"/>
<path d="M5.62079 7.74009C6.46931 7.03408 7.02921 7.18719 8.04525 7.02043C13.7569 6.083 19.8215 6.97744 24.9163 9.76259C25.1232 9.87565 26.019 10.3636 26.1404 10.4946L26.1607 10.5235C26.3304 10.7613 26.8613 11.0278 26.9443 11.5293C27.0487 12.1606 27.0153 12.9631 27.0183 13.612L27.03 17.3595L27.0571 33.8053L27.0611 38.6166C27.0611 39.0295 27.0291 40.4628 27.0757 40.7973C27.1298 40.887 27.1232 40.91 27.1148 41.0161L27.0593 41.0911L26.9806 41.1004C26.4957 40.9371 26.1718 40.0765 25.5336 39.7674C25.0301 39.2425 23.621 38.443 22.9361 38.2073C22.8817 38.1528 22.4084 37.948 22.3158 37.9109C20.797 37.3014 19.2307 36.8703 17.623 36.5742C16.8166 36.4257 16.3788 36.2804 15.5244 36.2164C15.2322 36.1835 15.0209 36.1102 14.7677 35.9569C14.5738 35.9209 13.8248 35.9043 13.6133 35.8948C12.5194 35.8455 11.4898 35.833 10.3988 35.9252C10.2158 35.9819 10.0138 36.0385 9.83989 36.1153L9.94967 36.1069C9.68489 36.176 9.38355 36.169 9.22629 36.2171C9.16048 36.2273 9.05025 36.2483 8.98786 36.2505C8.28631 36.4388 7.41444 36.6502 6.69855 36.681C6.50802 36.6806 6.31765 36.679 6.12831 36.6549C5.80963 36.6144 5.50294 36.5273 5.30182 36.2604C4.72261 35.4916 5.16087 24.8027 5.21354 23.2172C5.23754 22.4951 5.15696 21.7008 5.26509 20.9935C5.36684 18.1645 5.20962 15.1004 5.35239 12.2733C5.35284 11.5392 5.27979 11.0139 5.04499 10.3172C5.00081 10.1861 5.02852 10.0917 4.95938 9.91819C4.86492 9.83958 4.84729 9.79207 4.79199 9.68613L4.96655 8.92921C5.1332 8.38163 5.14308 8.14954 5.62079 7.74009Z" fill="#77CCF8"/>
<path d="M5.26503 20.9941C5.30374 21.7687 5.2451 22.5983 5.28221 23.3688C5.31329 24.0144 5.39536 24.637 5.42196 25.297C5.47105 26.8874 5.49201 28.4786 5.4848 30.0699C5.48769 31.8835 5.46705 33.7079 5.48316 35.5221C5.48493 35.7249 5.50506 36.0816 5.63086 36.2353C6.03799 36.4465 7.31798 36.2409 7.84729 36.2133C8.22959 36.2363 8.60472 36.2623 8.98781 36.2511C8.28625 36.4395 7.41438 36.6508 6.69849 36.6816C6.50796 36.6813 6.31759 36.6796 6.12826 36.6556C5.80958 36.615 5.50288 36.5279 5.30176 36.261C4.72255 35.4922 5.16081 24.8033 5.21348 23.2179C5.23749 22.4957 5.1569 21.7014 5.26503 20.9941Z" fill="#1174C1"/>
<path d="M14.7688 35.958C15.2466 35.9627 15.7386 35.9471 16.2143 35.9918C19.1361 36.2668 23.8935 37.4719 25.9812 39.6019C26.1458 39.7698 26.326 39.9374 26.4674 40.1255C26.6249 40.335 26.7643 40.7878 26.99 40.9066C27.0456 40.8646 27.0556 40.8654 27.0768 40.7984C27.1308 40.888 27.1242 40.9111 27.1159 41.0172L27.0604 41.0922L26.9817 41.1015C26.4967 40.9382 26.1728 40.0775 25.5346 39.7685C25.0312 39.2436 23.6221 38.4441 22.9371 38.2084C22.8828 38.1538 22.4094 37.9491 22.3168 37.912C20.7981 37.3024 19.2318 36.8713 17.624 36.5753C16.8176 36.4268 16.3799 36.2815 15.5255 36.2174C15.2332 36.1845 15.022 36.1113 14.7688 35.958Z" fill="#348FD1"/>
<path d="M5.62079 7.74121C5.57854 7.96811 5.62137 8.67739 5.6191 8.95744C5.614 9.58929 5.52122 11.7375 5.35239 12.2745C5.35284 11.5403 5.27979 11.015 5.04499 10.3183C5.00081 10.1872 5.02852 10.0928 4.95938 9.91931C4.86492 9.8407 4.84729 9.79319 4.79199 9.68725L4.96655 8.93033C5.1332 8.38275 5.14308 8.15066 5.62079 7.74121Z" fill="#3186CD"/>
<path d="M4.96655 8.92969L5.04656 9.05426C5.12895 9.0607 5.09675 9.04348 5.14847 9.10269C5.24491 9.51657 5.37516 10.4745 5.38714 10.9091L5.35087 10.9089C5.33756 10.6042 5.32566 10.0522 5.09885 9.83922L5.04668 9.81936L4.95938 9.91867C4.86492 9.84006 4.84729 9.79255 4.79199 9.68661L4.96655 8.92969Z" fill="#1174C1"/>
<path d="M7.84863 36.2132C8.53154 36.0789 9.71603 35.9239 10.4 35.9258C10.217 35.9825 10.0151 36.0391 9.84117 36.1158L9.95095 36.1074C9.68618 36.1766 9.38483 36.1696 9.22757 36.2177C9.16177 36.2279 9.05154 36.2489 8.98915 36.2511C8.60607 36.2623 8.23093 36.2362 7.84863 36.2132Z" fill="#3186CD"/>
<path d="M11.6665 24.5739C13.4828 24.521 15.2524 24.9222 17.046 25.1008C18.1267 25.2084 24.824 27.0784 23.8212 28.733L23.7147 28.9666C23.603 29.1078 23.5832 29.1382 23.4322 29.2328L23.4452 29.2637C23.5469 29.3336 23.539 29.3655 23.5287 29.4702C23.0393 29.9994 21.4419 29.0178 20.8625 28.7747C18.2216 27.667 15.4647 27.0525 12.5981 27.0021C11.705 26.9865 10.8025 27.0635 9.93116 26.9639C9.54902 26.9201 9.03458 26.3486 9.13732 25.9608C9.24768 25.9308 9.2345 25.9492 9.35643 25.9991L9.39798 25.6286C9.27527 25.4169 9.34618 25.2317 9.40214 25.0035C9.75405 24.4031 11.0607 24.5647 11.6665 24.5739Z" fill="#2E80C8"/>
<path d="M11.6668 24.5739C13.483 24.521 15.2526 24.9222 17.0463 25.1008C18.127 25.2084 24.8242 27.0784 23.8214 28.733L23.7149 28.9666C23.4923 28.7815 23.5086 28.518 23.0795 28.2429C20.2828 26.4502 15.6901 25.6339 12.4244 25.5928C11.7772 25.5844 11.13 25.5914 10.4832 25.6141C10.2628 25.6232 9.5947 25.7205 9.44753 25.6241L9.39824 25.6286C9.27553 25.4169 9.34644 25.2317 9.4024 25.0035C9.75431 24.4031 11.061 24.5647 11.6668 24.5739Z" fill="#022F6C"/>
<path d="M11.6655 24.5739C13.4817 24.521 15.2513 24.9222 17.045 25.1008C18.1257 25.2084 24.823 27.0784 23.8201 28.733C23.7758 28.5616 23.7249 28.4048 23.6172 28.2616C22.6532 26.9792 18.621 25.8471 17.0925 25.5237C16.1189 25.3176 15.1094 25.1953 14.123 25.0654L12.9998 25.0005L12.9646 24.9693C12.305 24.8404 10.3857 24.947 9.64511 24.9158C9.59396 24.9137 9.45433 24.9775 9.40112 25.0035C9.75303 24.4031 11.0597 24.5647 11.6655 24.5739Z" fill="#48A6E5"/>
<path d="M9.40112 25.0035C9.75303 24.4031 11.0597 24.5647 11.6655 24.5739C11.7978 24.6639 13.0837 24.7226 13.3308 24.7354L12.7769 24.737C13.7808 24.8769 14.7257 24.919 15.7334 25.0018C16.0992 25.0318 16.1216 25.1569 16.4593 25.1676L16.4824 25.2021C16.0533 25.4074 15.8833 25.1503 15.4667 25.088C15.0421 25.0245 14.555 25.0551 14.123 25.0654L12.9998 25.0005L12.9646 24.9693C12.305 24.8404 10.3857 24.947 9.64511 24.9158C9.59396 24.9137 9.45433 24.9775 9.40112 25.0035Z" fill="#3D9CDF"/>
<path d="M9.4024 25.0031C9.4556 24.977 9.59524 24.9132 9.64638 24.9154C10.387 24.9466 12.3063 24.8399 12.9659 24.9688L13.0011 25.0001C12.2414 24.9797 11.4808 24.9652 10.7211 24.9608C10.0009 24.9567 9.85013 25.0372 9.44753 25.6237L9.39824 25.6282C9.27553 25.4165 9.34644 25.2312 9.4024 25.0031Z" fill="#3186CD"/>
<path d="M9.44655 25.6231C9.59372 25.7195 10.2618 25.6222 10.4822 25.6131C11.129 25.5904 11.7763 25.5834 12.4234 25.5918C15.6892 25.6329 20.2819 26.4492 23.0785 28.2419C23.5077 28.517 23.4913 28.7805 23.714 28.9656C23.6023 29.1068 23.5824 29.1372 23.4315 29.2318C23.0126 28.9377 22.6583 28.4887 22.2219 28.2069C21.8057 27.938 20.9673 27.8186 20.5858 27.435C20.6199 27.4693 19.4144 27.1962 19.281 27.0049C19.3728 26.9964 19.45 26.9873 19.541 26.9729L19.4639 26.9092C19.2986 26.8895 19.3485 26.8946 19.179 27.0012C19.0494 26.9803 19.0344 26.9679 18.9282 26.8893C18.8942 26.8211 18.8763 26.7677 18.8168 26.7209L18.7382 26.8145C18.5791 26.8438 18.6857 26.6964 18.4787 26.679C18.4563 26.7223 18.4572 26.7482 18.46 26.7964C17.762 26.6531 17.1495 26.4659 16.4749 26.2499C16.1024 26.2313 15.7235 26.2598 15.3509 26.2326C15.204 26.2126 15.0346 26.201 14.8907 26.1678C14.4375 26.0631 14.1659 26.0112 13.7015 26.0911C13.6519 26.0997 13.4109 26.0432 13.341 26.037C13.2403 26.0413 13.0034 25.9258 12.9274 25.9332C12.7615 25.9492 12.5351 26.0619 12.3596 26.0493C12.1459 26.0339 11.91 25.9365 11.6992 25.9293C11.1573 25.9108 10.6154 25.8994 10.0735 25.877C9.8487 25.8679 9.67686 26.022 9.52516 26.1683L9.43996 26.161L9.35571 25.9981L9.39726 25.6276L9.44655 25.6231Z" fill="#0E66AE"/>
<path d="M23.4452 29.2632C23.5469 29.3331 23.539 29.365 23.5287 29.4697C23.0393 29.9989 21.4419 29.0173 20.8625 28.7742C18.2216 27.6665 15.4647 27.052 12.5981 27.0016C11.705 26.986 10.8025 27.063 9.93116 26.9634C9.54902 26.9196 9.03458 26.3481 9.13732 25.9603C9.24768 25.9303 9.2345 25.9487 9.35643 25.9986L9.44068 26.1615C9.49928 26.2833 9.52678 26.3452 9.6063 26.4559C10.4057 26.867 11.2783 26.6746 12.1622 26.6592C13.1025 26.65 14.0422 26.7048 14.975 26.8232C16.7226 27.0326 18.4384 27.4527 20.0852 28.0742C20.7392 28.3168 21.3765 28.598 21.9958 28.9196C22.4165 29.138 22.9533 29.4436 23.4452 29.2632Z" fill="#99EBFD"/>
<path d="M11.9606 13.2026C13.4859 13.1344 15.5277 13.3025 17.0268 13.6088C18.0401 13.6748 21.0384 14.5364 21.9269 15.0494C22.6426 15.3712 23.5299 15.772 23.8833 16.5564C23.9791 16.769 23.9283 16.9781 23.8777 17.1974C23.7455 17.443 23.6678 17.5127 23.4486 17.6841C23.0059 18.0851 22.2324 17.4748 21.8206 17.2723C19.6487 16.2046 17.2447 15.6575 14.8576 15.3261C13.2579 15.104 11.4699 15.3639 9.85278 15.2353C9.67905 15.0938 9.55407 14.9713 9.46109 14.7681C9.3642 14.6229 9.38108 14.5137 9.39401 14.3488C9.1252 13.8348 9.49103 13.4824 9.90376 13.2416C10.5889 13.2118 11.2748 13.1988 11.9606 13.2026Z" fill="#022F6C"/>
<path d="M9.46143 14.7689L9.51957 14.75C9.49923 14.6204 9.48609 14.6624 9.54621 14.572C9.83232 14.4851 10.4954 14.4486 10.8085 14.4305C11.4274 14.3947 12.0951 14.4586 12.7129 14.4899C13.2593 14.5176 13.8051 14.4882 14.351 14.5186C16.4907 14.7408 18.6139 15.0094 20.6231 15.8236C21.0251 15.9855 21.4689 16.107 21.8458 16.3211C22.2998 16.579 22.7719 16.8711 23.1932 17.1786C23.2995 17.2561 23.4235 17.5517 23.4489 17.685C23.0063 18.0859 22.2327 17.4756 21.8209 17.2732C19.649 16.2055 17.245 15.6584 14.858 15.327C13.2582 15.1048 11.4703 15.3648 9.85311 15.2362C9.67938 15.0946 9.55441 14.9722 9.46143 14.7689Z" fill="#3387CD"/>
<path d="M9.47821 14.301C9.61332 14.359 9.7978 14.2575 9.95749 14.2381C10.3036 14.1961 10.6479 14.1705 10.9963 14.1559C12.4076 14.1335 14.1519 14.0956 15.5424 14.2717C17.9336 14.5745 20.29 15.1578 22.4704 16.2014C22.7777 16.3485 22.9971 16.4785 23.2651 16.6855C23.507 16.8725 23.5523 17.1377 23.7148 17.2003C23.7762 17.1549 23.7951 17.148 23.826 17.0767L23.878 17.1977C23.7458 17.4434 23.668 17.5131 23.4488 17.6845C23.4234 17.5512 23.2994 17.2556 23.1932 17.178C22.7719 16.8706 22.2997 16.5785 21.8457 16.3206C21.4689 16.1065 21.025 15.985 20.6231 15.8231C18.6138 15.0089 16.4906 14.7403 14.3509 14.5181C13.8051 14.4877 13.2593 14.5171 12.7128 14.4894C12.0951 14.4581 11.4273 14.3942 10.8085 14.43C10.4954 14.4481 9.83226 14.4846 9.54616 14.5715C9.48604 14.6618 9.49917 14.6199 9.51951 14.7495L9.46137 14.7684C9.36448 14.6232 9.38136 14.514 9.39429 14.3492L9.47821 14.301Z" fill="#0E66AE"/>
<path d="M11.9607 13.2026C13.4861 13.1344 15.5279 13.3025 17.0269 13.6088C18.0402 13.6748 21.0385 14.5364 21.927 15.0494L21.9588 15.266C21.7462 15.3515 21.6042 15.1507 21.2699 15.1533L21.2346 15.1534C21.21 15.1533 21.1854 15.1542 21.1609 15.1558C20.3703 14.8497 19.5313 14.5816 18.7137 14.3563C17.5224 14.028 16.2578 13.8801 15.0445 13.6572C14.889 13.5773 14.7871 13.5604 14.6164 13.5208C13.9268 13.5366 13.36 13.2327 12.6813 13.2398C12.4424 13.2423 12.1962 13.2404 11.9607 13.2026Z" fill="#58B4ED"/>
<path d="M9.90376 13.2409C10.5889 13.2111 11.2748 13.198 11.9606 13.2018C12.1961 13.2397 12.4423 13.2415 12.6812 13.239C13.3599 13.232 13.9267 13.5359 14.6163 13.5201C14.787 13.5597 14.8889 13.5766 15.0444 13.6565C13.8776 13.5952 12.7556 13.5297 11.5834 13.5562C11.094 13.5673 10.5165 13.5471 10.0339 13.6116C9.73851 13.847 9.65232 13.9738 9.47793 14.2999L9.39401 14.3481C9.1252 13.8341 9.49103 13.4816 9.90376 13.2409Z" fill="#41A1E5"/>
<path d="M21.9265 15.0493C22.6422 15.371 23.5296 15.7718 23.883 16.5562C23.9787 16.7689 23.928 16.978 23.8773 17.1973L23.8253 17.0762C23.44 16.043 22.1347 15.6026 21.1604 15.1557C21.1849 15.154 21.2095 15.1532 21.2341 15.1533L21.2694 15.1532C21.6037 15.1506 21.7458 15.3514 21.9583 15.2659L21.9265 15.0493Z" fill="#48A6E5"/>
<path d="M10.1573 19.0068C11.426 18.7092 14.6948 19.1152 16.117 19.2024C16.4587 19.2233 18.9553 19.7145 19.2669 19.873C19.844 20.0414 20.652 20.2354 21.1801 20.4648C22.0248 20.8442 23.48 21.3736 23.8742 22.3109C23.9855 22.5756 23.9054 22.6919 23.8261 22.9303C23.7415 23.0767 23.6982 23.1701 23.5719 23.2817C23.2228 23.5501 22.7849 23.4541 22.4182 23.278C21.7829 22.973 21.1552 22.6455 20.4881 22.4125C19.1451 21.9294 17.7662 21.5529 16.3642 21.2866C15.2716 21.0833 11.4742 20.8317 10.449 21.0622C9.94527 21.0913 9.74391 20.8903 9.43223 20.5344L9.35543 20.3647L9.38854 20.097C9.14555 19.3824 9.50256 19.0891 10.1573 19.0068Z" fill="#3185CC"/>
<path d="M10.1573 19.0068C11.426 18.7092 14.6948 19.1152 16.117 19.2024C16.4587 19.2233 18.9553 19.7145 19.2669 19.873C19.844 20.0414 20.652 20.2354 21.1801 20.4648C22.0248 20.8442 23.48 21.3736 23.8742 22.3109C23.9855 22.5756 23.9054 22.6919 23.8261 22.9303C23.7415 23.0767 23.6982 23.1701 23.5719 23.2817C23.4479 23.1234 23.5189 22.9026 23.4522 22.8254C22.7364 21.9975 21.3661 21.5327 20.3915 21.1914C17.8693 20.3083 15.169 19.9789 12.5146 19.9485C11.6376 19.9472 10.7613 19.9989 9.89047 20.1034C9.74115 20.1217 9.56363 20.1657 9.43083 20.1165L9.38854 20.097C9.14555 19.3824 9.50256 19.0891 10.1573 19.0068Z" fill="#022F6C"/>
<path d="M10.1582 19.0068C11.4269 18.7092 14.6957 19.1152 16.118 19.2024C16.4596 19.2233 18.9562 19.7145 19.2678 19.873C19.8449 20.0414 20.6529 20.2354 21.181 20.4648C22.0257 20.8442 23.4809 21.3736 23.8751 22.3109C23.9864 22.5756 23.9063 22.6919 23.827 22.9303C23.3877 20.9323 17.1416 19.6962 15.3441 19.4954C14.0148 19.0221 13.0289 19.1444 11.668 19.1002C11.161 19.0837 10.6746 19.0213 10.1582 19.0068Z" fill="#48A6E5"/>
<path d="M19.2671 19.873C19.8442 20.0414 20.6522 20.2354 21.1803 20.4649C21.1333 20.5858 21.186 20.583 21.0953 20.6976C20.5565 20.4846 19.9894 20.2338 19.4414 20.0416C19.3979 20.0263 19.3007 19.9134 19.2671 19.873Z" fill="#58B4ED"/>
<path d="M10.1573 19.0068C10.6737 19.0213 11.1601 19.0837 11.6671 19.1001C13.028 19.1444 14.0139 19.0221 15.3432 19.4954C14.3293 19.416 10.4896 18.9426 9.77401 19.5607C9.60189 19.7094 9.51829 19.9128 9.43083 20.1165L9.38854 20.097C9.14555 19.3824 9.50256 19.0891 10.1573 19.0068Z" fill="#3D9CDF"/>
<path d="M9.432 20.5342C9.74367 20.8901 9.94504 21.0911 10.4487 21.062L10.8095 21.0869C10.6229 21.1014 10.1912 21.1255 10.0305 21.1672C10.1687 21.2423 10.4547 21.2088 10.5464 21.2585C10.0484 21.2629 9.95224 21.2609 9.47606 21.1104L9.27856 20.7725C9.30302 20.6598 9.3552 20.6175 9.432 20.5342Z" fill="#99EBFD"/>
<path d="M9.2794 20.7733C9.25012 20.7258 9.22319 20.6769 9.19864 20.6269C9.1237 20.4743 9.05926 20.2298 9.24555 20.1401C9.35179 20.2241 9.32045 20.2035 9.35603 20.3653L9.43283 20.535C9.35603 20.6183 9.30386 20.6605 9.2794 20.7733Z" fill="#58B4ED"/>
<path d="M49.7803 28.9125C49.833 28.3332 49.7881 26.7653 49.7861 26.1257L49.763 16.5523L49.7498 13.3416C49.7473 12.666 49.679 10.6615 50.0059 10.1514L50.0484 10.2336L50.0928 10.197C50.6281 10.4378 51 10.3278 51.5761 10.4048C52.6228 10.5447 53.5205 11.093 53.9496 12.0867C54.0711 12.3679 54.0974 12.8991 54.0991 13.2111C54.1085 14.9703 54.0892 16.7389 54.0834 18.4982L54.0842 27.9942L54.0777 37.0043C54.0793 38.6897 54.0945 40.3769 54.0735 42.0618C54.069 42.445 53.9632 43.2854 53.7079 43.5836L53.6893 43.5616C53.6511 43.3891 53.8598 43.1916 53.8961 42.933C53.8462 42.8069 53.8388 42.7795 53.7342 42.6836L53.6605 42.6944C53.5679 42.803 53.5617 42.8911 53.5329 43.0311C53.5242 42.8398 53.5778 42.6598 53.6218 42.4733C53.476 42.6104 53.1639 42.9149 53.0033 43.0003C53.0733 42.9301 53.4872 42.444 53.4884 42.4429V42.4431L53.5506 42.546C53.5819 42.4419 53.595 42.4112 53.5909 42.3034C53.4872 42.3652 53.3187 42.3872 53.1948 42.4107C53.0062 42.6715 52.274 43.2659 52.055 43.2902C50.8637 43.4226 49.4134 43.3608 48.2336 43.3522L37.9399 43.2956L34.8968 43.2682C34.227 43.2613 33.5977 43.2453 32.9272 43.2989C32.3619 43.344 32.3575 43.5195 31.9697 43.6643L31.9882 43.5994C32.5277 42.9529 34.4224 43.4514 35.0928 43.014C35.2084 42.9386 35.645 43.0257 35.8535 42.9633L35.8428 42.9341C35.2315 42.9255 35.0074 43 34.3292 42.8936L34.2866 42.8057L34.2721 42.8738L34.2568 42.8638L34.2599 42.8238L34.2935 42.8162C34.8731 42.682 35.9284 42.8191 36.5809 42.7816C40.0444 42.583 43.662 43.1872 47.065 42.4154C48.3374 42.1268 49.6736 40.6888 49.8733 39.4091C49.8882 39.3138 49.8997 39.2989 49.8433 39.2221L49.595 39.4751L49.5336 39.4389L49.6551 39.3179C49.9499 39.1819 50.106 37.9119 49.9714 37.6809C49.9718 37.9659 50.0216 38.4666 49.8429 38.6605C49.7556 38.5939 49.7136 38.4556 49.735 38.3515C49.7766 38.3962 49.7918 38.4197 49.849 38.443C49.9158 38.0841 49.8659 36.6714 49.8116 36.2875C49.8849 36.1226 49.8281 35.6742 49.8153 35.4704C49.7729 34.8708 49.8005 33.8861 49.7992 33.2603L49.7803 28.9125Z" fill="#2E79BD"/>
<path d="M48.9253 36.2772C49.022 36.2799 49.1752 36.2873 49.2601 36.2487C49.4367 36.1681 49.7653 35.638 49.8164 35.4712C49.8291 35.675 49.886 36.1234 49.8127 36.2883C49.867 36.6722 49.9168 38.0849 49.8501 38.4438C49.7929 38.4206 49.7777 38.397 49.7361 38.3523C49.7147 38.4564 49.7567 38.5947 49.844 38.6613C50.0227 38.4674 49.9729 37.9667 49.9724 37.6817C50.1071 37.9127 49.951 39.1828 49.6562 39.3187L49.5891 39.2522C49.2024 39.3648 49.1476 39.4442 48.7074 39.5046L48.6457 39.5056C48.0358 39.3846 47.4198 39.4022 46.8445 39.2991C45.5079 39.0466 44.1926 38.949 42.8428 38.8787C40.735 38.7689 38.5925 38.882 36.5197 39.2846C33.829 39.8072 31.2801 40.2186 29.3126 42.3221C28.6977 42.9795 26.6118 42.8578 25.7817 42.6975C25.6085 42.6257 23.9032 41.3506 23.6859 41.1665C23.539 41.1493 22.7332 40.7477 22.5352 40.6656C19.988 39.6093 17.2821 39.1221 14.5176 38.9483C13.1048 38.8713 11.6881 38.9113 10.2818 39.0677C9.23071 39.18 6.50816 39.6587 5.59424 39.4786C5.37036 39.3733 5.34503 39.3666 5.16611 39.1888C5.13469 39.0612 5.00333 38.8331 4.96582 38.6392C4.85423 38.0623 4.8035 37.1408 4.85723 36.57C4.93864 36.2827 4.89359 35.8814 4.9202 35.567C4.99691 36.0924 4.92674 36.123 5.36064 36.5406C5.56818 36.7403 6.55444 36.8197 6.70021 36.6817C7.4161 36.651 8.28797 36.4396 8.98953 36.2513C9.05191 36.249 9.16215 36.2281 9.22795 36.2179C9.38521 36.1697 9.68655 36.1768 9.95133 36.1076L9.84155 36.116C10.0155 36.0393 10.2174 35.9827 10.4004 35.926C11.4914 35.8337 12.5211 35.8462 13.615 35.8955C13.8265 35.9051 14.5755 35.9216 14.7694 35.9577C15.0226 36.111 15.2339 36.1842 15.5261 36.2171C16.3805 36.2812 16.8182 36.4265 17.6246 36.575C19.2324 36.871 20.7987 37.3021 22.3174 37.9116C22.4101 37.9488 22.8834 38.1535 22.9377 38.208C23.6227 38.4437 25.0318 39.2433 25.5352 39.7682C25.7182 40.0479 26.2189 40.5232 26.3439 40.8126C26.6196 41.451 27.9977 41.32 28.4114 40.9662L28.43 40.9501C28.6945 40.723 28.8289 40.3676 29.0316 40.1353C29.5926 39.4922 30.8798 38.6637 31.681 38.3841L31.7199 38.3708C33.2126 37.4854 36.6647 36.661 38.4364 36.3377C39.1546 36.195 39.9553 36.2462 40.6646 36.1588C42.4434 35.9397 44.1782 36.2495 45.9567 36.1714L45.9818 36.1701C46.6724 36.2514 47.3667 36.2962 48.0618 36.3045C48.3315 36.3058 48.6976 36.2723 48.9253 36.2772Z" fill="#0D3E6D"/>
<path d="M15.525 36.2163C16.3794 36.2804 16.8172 36.4257 17.6236 36.5742C19.2313 36.8702 20.7976 37.3013 22.3164 37.9108C22.409 37.948 22.8823 38.1527 22.9366 38.2072C23.3072 38.5298 24.5699 39.0757 24.8135 39.3968L24.8061 39.4517L24.6679 39.4494C24.5971 39.4334 23.7934 38.9081 23.643 38.8355C23.0576 38.5532 22.4114 38.2821 21.8005 38.0606C20.3954 37.5513 18.9221 37.1696 17.4753 36.8001C17.1287 36.7116 16.6889 36.6906 16.3425 36.6001C15.8659 36.4757 15.5428 36.3291 15.0542 36.2182L15.525 36.2163Z" fill="#004C88"/>
<path d="M22.9363 38.2085C23.6212 38.4442 25.0303 39.2437 25.5338 39.7686C25.7168 40.0483 26.2175 40.5237 26.3424 40.8131C26.6181 41.4515 27.9963 41.3205 28.41 40.9667L28.4286 40.9505C28.6931 40.7235 28.8275 40.3681 29.0302 40.1358C29.5912 39.4927 30.8784 38.6642 31.6795 38.3846L31.7184 38.3713C31.4574 38.6451 30.0496 39.2858 29.8642 39.5708C29.9373 39.5747 30.0105 39.5792 30.0837 39.5842C29.5514 40.0599 29.1477 40.4035 28.6912 40.9593C28.316 41.4163 27.3532 41.4597 26.7758 41.4449C26.1001 41.0834 26.0052 40.7471 25.5085 40.1833C25.2751 39.9183 24.9553 39.6572 24.6675 39.4506L24.8058 39.453L24.8131 39.398C24.5695 39.0769 23.3068 38.531 22.9363 38.2085Z" fill="#0E66AE"/>
<path d="M5.59277 39.4777C7.11345 39.4749 8.63301 39.1739 10.1372 38.995C13.3626 38.6114 16.7682 38.919 19.9196 39.6691C20.523 39.8127 23.3836 40.8294 23.6845 41.1656C23.5375 41.1483 22.7318 40.7468 22.5338 40.6646C19.9866 39.6083 17.2806 39.1212 14.5162 38.9473C13.1033 38.8703 11.6866 38.9103 10.2804 39.0668C9.22924 39.1791 6.50669 39.6578 5.59277 39.4777Z" fill="#022F6C"/>
<path d="M10.399 35.9255C11.4901 35.8332 12.5197 35.8457 13.6136 35.895C13.8251 35.9046 14.5741 35.9211 14.768 35.9572C15.0212 36.1105 15.2325 36.1837 15.5247 36.2166L15.0539 36.2184C13.3057 36.1157 11.5957 36.1465 9.85013 36.2186C9.64712 36.227 9.43023 36.2203 9.22656 36.2174C9.38382 36.1692 9.68517 36.1763 9.94994 36.1071L9.84016 36.1155C10.0141 36.0388 10.216 35.9822 10.399 35.9255Z" fill="#0E66AE"/>
<path d="M48.9251 36.2772C49.0219 36.2799 49.1751 36.2873 49.2599 36.2487C49.4366 36.1681 49.7652 35.638 49.8162 35.4712C49.829 35.675 49.8858 36.1234 49.8125 36.2883C49.318 36.3733 49.5864 36.5436 49.2529 36.7184C48.496 37.1155 47.3776 36.7242 46.4697 36.6422L46.4474 36.6002L46.594 36.5881C46.608 36.5744 46.6854 36.5042 46.6965 36.5037C47.1297 36.4813 48.657 36.6416 48.9873 36.4755L48.9737 36.4358C48.1493 36.3935 46.6282 36.4764 45.9817 36.1701C46.6723 36.2514 47.3665 36.2962 48.0616 36.3045C48.3313 36.3058 48.6974 36.2723 48.9251 36.2772Z" fill="#004C88"/>
<path d="M25.781 42.6983C26.6111 42.8586 28.697 42.9803 29.3119 42.3229C31.2794 40.2194 33.8283 39.808 36.519 39.2854C38.5918 38.8828 40.7343 38.7697 42.8421 38.8794C44.1919 38.9497 45.5072 39.0474 46.8438 39.2999C47.4191 39.403 48.0351 39.3854 48.645 39.5064L48.7067 39.5054L48.9468 39.5244L48.9946 39.5807C48.8723 39.7587 47.7798 39.9457 47.6604 40.1395C46.4353 40.7619 42.4307 40.839 40.9068 40.9291C39.0668 41.0294 37.2311 41.1974 35.4035 41.4329C35.067 41.476 34.2035 41.5275 33.9239 41.6084C33.208 41.8155 32.3942 41.9588 31.7051 42.2094C30.0094 42.8645 28.6939 43.7222 26.8344 43.7991C25.0268 43.8739 24.2114 42.8819 22.6442 42.2434C22.3915 42.1405 22.0459 42.0797 21.7767 42.0062C21.6005 41.958 21.4452 41.9253 21.2794 41.833C18.6947 41.2898 16.1561 41.2889 13.5476 41.181C11.4621 41.0947 6.35242 41.6465 5.22912 39.6146C5.27054 39.6291 5.51107 39.7686 5.65371 39.8239C5.45325 39.6639 5.09438 39.4589 5.16542 39.1896C5.34434 39.3674 5.36966 39.3741 5.59355 39.4794C6.50746 39.6595 9.23001 39.1808 10.2811 39.0685C11.6874 38.9121 13.1041 38.8721 14.5169 38.949C17.2814 39.1229 19.9873 39.6101 22.5345 40.6664C22.7325 40.7485 23.5383 41.1501 23.6852 41.1673C23.9025 41.3514 25.6078 42.6265 25.781 42.6983Z" fill="#001D43"/>
<path d="M25.7812 42.6983C26.6113 42.8586 28.6972 42.9803 29.3121 42.3229C31.2796 40.2194 33.8285 39.808 36.5192 39.2854C38.592 38.8828 40.7345 38.7697 42.8423 38.8794C44.1921 38.9497 45.5074 39.0474 46.844 39.2999C47.4193 39.403 48.0353 39.3854 48.6452 39.5064C47.5589 39.547 45.1607 39.1029 43.9051 38.9995C40.803 38.7364 37.6786 39.0165 34.6727 39.8272C34.4902 39.8771 34.077 39.9193 33.9356 39.9791C32.9133 40.4111 31.7935 40.7161 30.8595 41.3257C29.7261 42.0653 28.7568 43.2902 27.2721 43.1629C26.6476 43.1181 26.3514 43.0868 25.7943 42.7298L25.7812 42.6983Z" fill="#022F6C"/>
<path d="M2.91724 45.3124C2.98052 45.2969 4.50062 45.3551 4.74254 45.3552C7.89248 45.356 11.043 45.3638 14.1931 45.3583C14.608 45.3409 14.8864 45.1951 15.3322 45.2619C15.4158 45.2744 15.3486 45.1672 15.5577 45.1274C15.7526 45.0744 16.3944 45.3358 16.5287 45.2312C16.9385 44.9117 17.3911 45.1751 17.8666 45.1087C19.1678 44.9269 20.5984 44.7473 21.9013 44.6567C22.3559 44.6251 22.7085 45.3764 22.6931 45.8679L22.6807 46.1819C22.7393 46.2361 22.8777 46.3569 22.9237 46.4184C23.4147 47.0762 24.1772 47.5551 24.9175 47.8866C25.2091 48.0172 25.5345 48.0608 25.808 48.1761L25.7086 48.2148C24.296 47.8611 23.4234 47.195 22.5018 46.0875C22.0492 45.5435 21.8246 45.4305 21.1347 45.4231C19.9237 45.41 18.7119 45.4216 17.4994 45.4237L7.44948 45.4304C6.63069 45.4312 3.48836 45.5187 2.91724 45.3124Z" fill="#022F6C"/>
<path d="M31.8186 46.46C32.0267 46.2105 32.097 46.2677 32.1518 45.9365C32.2338 45.441 32.2859 44.9844 32.7651 44.7019C33.0527 44.5324 33.4465 44.7362 33.7503 44.7639C33.9276 44.78 34.1363 44.7527 34.3146 44.7717L36.42 44.9979C36.6555 45.0245 36.8993 45.092 37.1254 45.0928C37.6918 45.095 38.2547 45.1195 38.8186 45.1784L38.8536 45.2219L38.7781 45.3453C39.5333 45.392 40.6439 45.3591 41.4207 45.359L46.8271 45.3546C48.1707 45.3438 50.0353 45.2998 51.3657 45.4029C50.9124 45.4669 50.0587 45.4456 49.5765 45.4444L46.6796 45.4351L36.722 45.4112C35.9806 45.4112 35.1524 45.4193 34.4172 45.4033C33.0523 45.3737 32.7858 45.5181 31.8868 46.5235L31.8186 46.46Z" fill="#022F6C"/>
<path d="M1.35962 11.5093C2.12955 10.512 3.32034 10.378 4.48998 10.3511C4.48167 10.6557 4.44629 10.8181 4.34471 11.1114C3.5912 11.2702 2.82372 11.4322 2.07046 11.5961C2.00026 11.6114 1.76014 11.3373 1.7014 11.2789C1.57796 11.3911 1.56291 11.468 1.41829 11.5224L1.35962 11.5093Z" fill="#3186CD"/>
<path d="M48.707 39.5048C49.1472 39.4445 49.202 39.3651 49.5886 39.2524L49.6557 39.3189L49.5343 39.44C49.244 39.6101 47.8291 40.3711 47.5779 40.2853C47.5841 40.214 47.6079 40.2078 47.6606 40.1389C47.7801 39.9451 48.8725 39.7582 48.9948 39.5801L48.9471 39.5238L48.707 39.5048Z" fill="#022F6C"/>
<path d="M5.2288 39.613C5.20088 39.575 5.05828 39.4342 5.06087 39.4415C4.77555 38.6347 4.76715 36.6188 4.82678 35.8672C4.85202 35.922 4.85424 36.469 4.85622 36.5692C4.80248 37.14 4.85321 38.0614 4.96481 38.6384C5.00232 38.8322 5.13368 39.0604 5.1651 39.188C5.09406 39.4573 5.45293 39.6623 5.65339 39.8222C5.51075 39.7669 5.27023 39.6274 5.2288 39.613Z" fill="#022F6C"/>
<path d="M2.13501 43.813C2.29118 43.817 2.76041 44.0699 2.96253 44.1184C4.27218 44.4327 5.79492 44.1217 7.12453 44.1147L20.7753 43.9781C21.2115 43.96 21.9678 43.9719 22.2739 44.3157L22.2315 44.3606C16.6621 44.2845 11.0707 44.3725 5.50045 44.3825C4.2985 44.3847 3.20303 44.4498 2.13501 43.813Z" fill="#022F6C"/>
<path d="M33.643 43.9788C34.3166 43.9573 35.4503 44.0505 36.1672 44.0726L41.4973 44.2281C42.0219 44.2463 42.6499 44.2038 43.2009 44.2138C45.8104 44.277 48.4202 44.3015 51.0305 44.2873L51.2002 44.2962C50.8625 44.3501 50.011 44.3341 49.6412 44.3346C48.6348 44.3378 47.6284 44.3324 46.622 44.3184L38.6667 44.2912L34.4764 44.3064C34.1914 44.3072 32.9979 44.4038 32.8728 44.2374C33.0125 43.9894 33.3958 43.9747 33.643 43.9788Z" fill="#022F6C"/>
<path d="M25.8083 48.1746C26.0167 48.1652 26.3173 48.2541 26.5818 48.2549C28.9208 48.2628 30.093 48.2739 31.8185 46.46L31.8867 46.5235C30.6288 47.8283 29.4079 48.3735 27.5715 48.4155C26.9205 48.4303 26.3431 48.3776 25.709 48.2133L25.8083 48.1746Z" fill="#022F6C" fill-opacity="0.984314"/>
</g>
<defs>
<clipPath id="clip0_333_65033">
<rect width="54.8496" height="42.1667" fill="white" transform="translate(0 6.2793)"/>
</clipPath>
</defs>
</svg>
