<svg width="40" height="40" viewBox="0 0 40 40" fill="none" xmlns="http://www.w3.org/2000/svg">
<foreignObject x="-21.3333" y="-21.3333" width="82.6667" height="82.6667"><div xmlns="http://www.w3.org/1999/xhtml" style="backdrop-filter:blur(10.67px);clip-path:url(#bgblur_0_492_149329_clip_path);height:100%;width:100%"></div></foreignObject><circle data-figma-bg-blur-radius="21.3333" cx="20" cy="20" r="20" fill="black" fill-opacity="0.32"/>
<g filter="url(#filter1_dd_492_149329)">
<path d="M17.0935 10.9609C17.4841 10.5703 18.1171 10.5703 18.5076 10.9609C18.898 11.3514 18.8981 11.9844 18.5076 12.3749L12.0808 18.8017L29.9998 18.8017C30.5521 18.8017 30.9998 19.2494 30.9998 19.8017C30.9997 20.3539 30.552 20.8017 29.9998 20.8017L12.0828 20.8017L18.5076 27.2275C18.8981 27.618 18.8981 28.251 18.5076 28.6415C18.1171 29.0319 17.484 29.032 17.0935 28.6415L10.3982 21.9462C9.21362 20.7616 9.21361 18.8408 10.3982 17.6562L17.0935 10.9609Z" fill="white"/>
</g>
<defs>
<clipPath id="bgblur_0_492_149329_clip_path" transform="translate(21.3333 21.3333)"><circle cx="20" cy="20" r="20"/>
</clipPath><filter id="filter1_dd_492_149329" x="8.0294" y="10.668" width="24.451" height="22.7067" filterUnits="userSpaceOnUse" color-interpolation-filters="sRGB">
<feFlood flood-opacity="0" result="BackgroundImageFix"/>
<feColorMatrix in="SourceAlpha" type="matrix" values="0 0 0 0 0 0 0 0 0 0 0 0 0 0 0 0 0 0 127 0" result="hardAlpha"/>
<feMorphology radius="1.48037" operator="erode" in="SourceAlpha" result="effect1_dropShadow_492_149329"/>
<feOffset dy="2.96074"/>
<feGaussianBlur stdDeviation="1.48037"/>
<feComposite in2="hardAlpha" operator="out"/>
<feColorMatrix type="matrix" values="0 0 0 0 0 0 0 0 0 0 0 0 0 0 0 0 0 0 0.04 0"/>
<feBlend mode="normal" in2="BackgroundImageFix" result="effect1_dropShadow_492_149329"/>
<feColorMatrix in="SourceAlpha" type="matrix" values="0 0 0 0 0 0 0 0 0 0 0 0 0 0 0 0 0 0 127 0" result="hardAlpha"/>
<feMorphology radius="0.493456" operator="erode" in="SourceAlpha" result="effect2_dropShadow_492_149329"/>
<feOffset dy="0.986913"/>
<feGaussianBlur stdDeviation="0.493456"/>
<feComposite in2="hardAlpha" operator="out"/>
<feColorMatrix type="matrix" values="0 0 0 0 0 0 0 0 0 0 0 0 0 0 0 0 0 0 0.04 0"/>
<feBlend mode="normal" in2="effect1_dropShadow_492_149329" result="effect2_dropShadow_492_149329"/>
<feBlend mode="normal" in="SourceGraphic" in2="effect2_dropShadow_492_149329" result="shape"/>
</filter>
</defs>
</svg>
